<?xml version="1.0" encoding="UTF-8" standalone="no"?>
<!DOCTYPE svg PUBLIC "-//W3C//DTD SVG 1.1//EN" "http://www.w3.org/Graphics/SVG/1.1/DTD/svg11.dtd">
<svg version="1.1" xmlns="http://www.w3.org/2000/svg" xmlns:xlink="http://www.w3.org/1999/xlink" preserveAspectRatio="xMidYMid meet" viewBox="0 0 640 640" width="640" height="640"><defs><path d="M216.31 496.42C208.51 494.55 201.72 489.82 195.93 482.3C190.06 474.77 186.33 465.78 184.87 455.39C183.4 444.93 182.47 427.68 182.2 403.43C182.2 386.52 181.54 373.13 180.21 363.27C178.81 353.34 175.21 345.02 169.35 338.29C163.49 331.5 154.3 327.97 141.84 327.77C141.84 324.58 141.84 299.11 141.84 295.93C154.3 295.66 163.49 292.2 169.35 285.47C175.21 278.81 178.81 270.48 180.21 260.63C181.54 250.7 182.2 237.31 182.2 220.4C182.47 196.35 183.34 179.17 184.8 168.77C186.2 158.45 189.8 149.46 195.59 141.8C201.39 134.07 208.18 129.28 215.97 127.34C223.77 125.35 233.09 124.41 243.88 124.41C244.6 124.41 248.17 124.41 254.61 124.41C254.61 127.45 254.61 151.81 254.61 154.85C251.01 154.85 249.01 154.85 248.61 154.85C235.16 154.85 226.23 157.25 221.77 162.18C217.24 167.04 215.04 178.03 215.04 195.22C215.04 223.73 214.38 244.37 213.18 257.1C211.91 269.82 208.45 280.54 202.85 289.2C197.19 297.86 187.67 305.45 174.21 311.91C187.53 317.24 197.59 325.9 204.58 337.89C211.51 349.88 215.04 370.6 215.04 400.1C215.04 427.35 215.57 444 216.77 450.06C217.97 456.19 220.17 460.85 223.5 464.05C226.83 467.24 235.16 468.84 248.61 468.84C249.01 468.84 251.01 468.84 254.61 468.84C254.61 471.88 254.61 496.24 254.61 499.28C248.17 499.28 244.6 499.28 243.88 499.28C233.23 499.28 224.03 498.35 216.31 496.42Z" id="dPgoTLB21"></path><path d="M216.31 496.42C208.51 494.55 201.72 489.82 195.93 482.3C190.06 474.77 186.33 465.78 184.87 455.39C183.4 444.93 182.47 427.68 182.2 403.43C182.2 386.52 181.54 373.13 180.21 363.27C178.81 353.34 175.21 345.02 169.35 338.29C163.49 331.5 154.3 327.97 141.84 327.77C141.84 324.58 141.84 299.11 141.84 295.93C154.3 295.66 163.49 292.2 169.35 285.47C175.21 278.81 178.81 270.48 180.21 260.63C181.54 250.7 182.2 237.31 182.2 220.4C182.47 196.35 183.34 179.17 184.8 168.77C186.2 158.45 189.8 149.46 195.59 141.8C201.39 134.07 208.18 129.28 215.97 127.34C223.77 125.35 233.09 124.41 243.88 124.41C244.6 124.41 248.17 124.41 254.61 124.41C254.61 127.45 254.61 151.81 254.61 154.85C251.01 154.85 249.01 154.85 248.61 154.85C235.16 154.85 226.23 157.25 221.77 162.18C217.24 167.04 215.04 178.03 215.04 195.22C215.04 223.73 214.38 244.37 213.18 257.1C211.91 269.82 208.45 280.54 202.85 289.2C197.19 297.86 187.67 305.45 174.21 311.91C187.53 317.24 197.59 325.9 204.58 337.89C211.51 349.88 215.04 370.6 215.04 400.1C215.04 427.35 215.57 444 216.77 450.06C217.97 456.19 220.17 460.85 223.5 464.05C226.83 467.24 235.16 468.84 248.61 468.84C249.01 468.84 251.01 468.84 254.61 468.84C254.61 471.88 254.61 496.24 254.61 499.28C248.17 499.28 244.6 499.28 243.88 499.28C233.23 499.28 224.03 498.35 216.31 496.42Z" id="dd3PakLCc"></path><path d="M476.21 362.74C474.88 372.46 474.08 386.05 473.95 403.43C473.75 427.41 472.88 444.53 471.41 454.86C470.02 465.18 466.42 474.24 460.62 481.9C454.83 489.56 448.04 494.42 440.24 496.35C432.38 498.28 423.12 499.28 412.33 499.28C411.62 499.28 408.04 499.28 401.61 499.28C401.61 496.24 401.61 471.88 401.61 468.84C405.21 468.84 407.2 468.84 407.6 468.84C421.06 468.84 429.98 466.38 434.45 461.52C438.98 456.65 441.17 445.66 441.17 428.61C441.17 400.04 441.84 379.32 443.04 366.6C444.31 353.81 447.7 343.15 453.36 334.49C459.03 325.84 468.55 318.31 482.01 311.91C468.68 306.45 458.63 297.73 451.63 285.8C444.71 273.82 441.17 253.03 441.17 223.53C441.17 196.35 440.64 179.7 439.44 173.7C438.24 167.64 436.05 162.98 432.72 159.72C429.39 156.45 421.06 154.85 407.6 154.85C407.2 154.85 405.21 154.85 401.61 154.85C401.61 151.81 401.61 127.45 401.61 124.41C408.04 124.41 411.62 124.41 412.33 124.41C423.12 124.41 432.45 125.41 440.31 127.41C448.17 129.48 455.1 134.41 461.02 142.26C466.95 150.12 470.55 159.12 471.95 169.31C473.28 179.43 473.95 196.48 473.95 220.4C473.95 237.18 474.68 250.5 476.01 260.43C477.41 270.28 481.01 278.61 486.87 285.4C492.73 292.13 501.85 295.66 514.38 295.93C514.38 298.05 514.38 308.66 514.38 327.77C499.95 330.25 490.8 333.72 486.93 338.16C481.14 344.89 477.61 353.08 476.21 362.74Z" id="d2BHCdBFjX"></path><path d="M476.21 362.74C474.88 372.46 474.08 386.05 473.95 403.43C473.75 427.41 472.88 444.53 471.41 454.86C470.02 465.18 466.42 474.24 460.62 481.9C454.83 489.56 448.04 494.42 440.24 496.35C432.38 498.28 423.12 499.28 412.33 499.28C411.62 499.28 408.04 499.28 401.61 499.28C401.61 496.24 401.61 471.88 401.61 468.84C405.21 468.84 407.2 468.84 407.6 468.84C421.06 468.84 429.98 466.38 434.45 461.52C438.98 456.65 441.17 445.66 441.17 428.61C441.17 400.04 441.84 379.32 443.04 366.6C444.31 353.81 447.7 343.15 453.36 334.49C459.03 325.84 468.55 318.31 482.01 311.91C468.68 306.45 458.63 297.73 451.63 285.8C444.71 273.82 441.17 253.03 441.17 223.53C441.17 196.35 440.64 179.7 439.44 173.7C438.24 167.64 436.05 162.98 432.72 159.72C429.39 156.45 421.06 154.85 407.6 154.85C407.2 154.85 405.21 154.85 401.61 154.85C401.61 151.81 401.61 127.45 401.61 124.41C408.04 124.41 411.62 124.41 412.33 124.41C423.12 124.41 432.45 125.41 440.31 127.41C448.17 129.48 455.1 134.41 461.02 142.26C466.95 150.12 470.55 159.12 471.95 169.31C473.28 179.43 473.95 196.48 473.95 220.4C473.95 237.18 474.68 250.5 476.01 260.43C477.41 270.28 481.01 278.61 486.87 285.4C492.73 292.13 501.85 295.66 514.38 295.93C514.38 298.05 514.38 308.66 514.38 327.77C499.95 330.25 490.8 333.72 486.93 338.16C481.14 344.89 477.61 353.08 476.21 362.74Z" id="d13wzMdDZo"></path><path d="M330.8 202.81L331.43 202.86L332.06 202.93L332.68 203.01L333.29 203.11L333.9 203.22L334.5 203.35L335.09 203.5L335.68 203.65L336.26 203.83L336.84 204.01L337.41 204.22L337.98 204.44L338.54 204.67L339.09 204.92L339.64 205.18L340.18 205.46L340.71 205.76L341.24 206.07L341.76 206.39L342.28 206.73L342.79 207.09L343.3 207.46L343.79 207.84L344.29 208.25L344.77 208.66L345.25 209.09L345.73 209.54L346.19 210L346.64 210.47L347.08 210.95L347.5 211.43L347.91 211.91L348.3 212.41L348.68 212.91L349.04 213.41L349.39 213.93L349.72 214.45L350.04 214.97L350.34 215.5L350.63 216.04L350.91 216.59L351.17 217.14L351.41 217.69L351.64 218.25L351.86 218.82L352.06 219.4L352.25 219.98L352.42 220.56L352.57 221.16L352.71 221.75L352.84 222.36L352.95 222.97L353.05 223.58L353.13 224.2L353.2 224.83L353.25 225.46L353.29 226.1L353.31 226.74L353.32 227.39L353.31 228.06L353.29 228.72L353.25 229.37L353.2 230.02L353.13 230.66L353.05 231.3L352.95 231.93L352.84 232.55L352.71 233.17L352.57 233.78L352.42 234.38L352.25 234.98L352.06 235.57L351.86 236.15L351.64 236.73L351.41 237.3L351.17 237.86L350.91 238.42L350.63 238.97L350.34 239.51L350.04 240.05L349.72 240.58L349.39 241.1L349.04 241.62L348.68 242.13L348.3 242.63L347.91 243.13L347.5 243.62L347.08 244.1L346.64 244.57L346.19 245.04L345.73 245.5L345.25 245.95L344.77 246.38L344.29 246.8L343.79 247.2L343.3 247.59L342.79 247.96L342.28 248.31L341.76 248.65L341.24 248.98L340.71 249.29L340.18 249.58L339.64 249.86L339.09 250.13L338.54 250.38L337.98 250.61L337.41 250.83L336.84 251.03L336.26 251.22L335.68 251.39L335.09 251.55L334.5 251.69L333.9 251.82L333.29 251.93L332.68 252.03L332.06 252.11L331.43 252.18L330.8 252.23L330.16 252.27L329.52 252.29L328.87 252.3L328.22 252.29L327.57 252.27L326.93 252.23L326.29 252.18L325.66 252.11L325.04 252.03L324.42 251.93L323.8 251.82L323.2 251.7L322.59 251.55L322 251.4L321.41 251.23L320.83 251.04L320.25 250.84L319.68 250.62L319.12 250.39L318.56 250.15L318.01 249.89L317.46 249.61L316.92 249.32L316.39 249.02L315.87 248.7L315.35 248.37L314.83 248.02L314.33 247.66L313.83 247.28L313.33 246.89L312.85 246.48L312.36 246.06L311.89 245.62L311.42 245.17L310.96 244.71L310.51 244.23L310.08 243.75L309.66 243.27L309.26 242.78L308.88 242.28L308.51 241.77L308.15 241.26L307.81 240.74L307.48 240.22L307.17 239.69L306.88 239.16L306.6 238.61L306.34 238.06L306.09 237.51L305.85 236.95L305.64 236.38L305.43 235.81L305.24 235.23L305.07 234.64L304.91 234.05L304.77 233.45L304.64 232.85L304.53 232.24L304.43 231.62L304.35 231L304.28 230.37L304.23 229.73L304.19 229.09L304.17 228.44L304.16 227.79L304.17 227.13L304.19 226.49L304.23 225.84L304.29 225.21L304.36 224.57L304.45 223.95L304.55 223.33L304.67 222.72L304.8 222.11L304.95 221.51L305.12 220.91L305.3 220.32L305.49 219.73L305.71 219.15L305.93 218.58L306.18 218.01L306.44 217.45L306.71 216.9L307 216.35L307.31 215.8L307.63 215.27L307.96 214.73L308.32 214.21L308.68 213.69L309.07 213.17L309.46 212.66L309.88 212.16L310.31 211.66L310.75 211.17L311.21 210.68L311.69 210.2L312.18 209.73L312.68 209.27L313.18 208.83L313.68 208.4L314.19 207.98L314.7 207.59L315.21 207.21L315.73 206.84L316.25 206.49L316.78 206.16L317.31 205.84L317.85 205.54L318.39 205.25L318.93 204.98L319.48 204.72L320.03 204.48L320.59 204.26L321.15 204.05L321.72 203.86L322.29 203.68L322.86 203.52L323.44 203.37L324.03 203.24L324.62 203.12L325.21 203.02L325.81 202.94L326.41 202.87L327.02 202.81L327.63 202.78L328.25 202.75L328.87 202.74L329.52 202.75L330.16 202.77L330.8 202.81Z" id="d9cmAA2rI"></path><path d="M330.8 202.81L331.43 202.86L332.06 202.93L332.68 203.01L333.29 203.11L333.9 203.22L334.5 203.35L335.09 203.5L335.68 203.65L336.26 203.83L336.84 204.01L337.41 204.22L337.98 204.44L338.54 204.67L339.09 204.92L339.64 205.18L340.18 205.46L340.71 205.76L341.24 206.07L341.76 206.39L342.28 206.73L342.79 207.09L343.3 207.46L343.79 207.84L344.29 208.25L344.77 208.66L345.25 209.09L345.73 209.54L346.19 210L346.64 210.47L347.08 210.95L347.5 211.43L347.91 211.91L348.3 212.41L348.68 212.91L349.04 213.41L349.39 213.93L349.72 214.45L350.04 214.97L350.34 215.5L350.63 216.04L350.91 216.59L351.17 217.14L351.41 217.69L351.64 218.25L351.86 218.82L352.06 219.4L352.25 219.98L352.42 220.56L352.57 221.16L352.71 221.75L352.84 222.36L352.95 222.97L353.05 223.58L353.13 224.2L353.2 224.83L353.25 225.46L353.29 226.1L353.31 226.74L353.32 227.39L353.31 228.06L353.29 228.72L353.25 229.37L353.2 230.02L353.13 230.66L353.05 231.3L352.95 231.93L352.84 232.55L352.71 233.17L352.57 233.78L352.42 234.38L352.25 234.98L352.06 235.57L351.86 236.15L351.64 236.73L351.41 237.3L351.17 237.86L350.91 238.42L350.63 238.97L350.34 239.51L350.04 240.05L349.72 240.58L349.39 241.1L349.04 241.62L348.68 242.13L348.3 242.63L347.91 243.13L347.5 243.62L347.08 244.1L346.64 244.57L346.19 245.04L345.73 245.5L345.25 245.95L344.77 246.38L344.29 246.8L343.79 247.2L343.3 247.59L342.79 247.96L342.28 248.31L341.76 248.65L341.24 248.98L340.71 249.29L340.18 249.58L339.64 249.86L339.09 250.13L338.54 250.38L337.98 250.61L337.41 250.83L336.84 251.03L336.26 251.22L335.68 251.39L335.09 251.55L334.5 251.69L333.9 251.82L333.29 251.93L332.68 252.03L332.06 252.11L331.43 252.18L330.8 252.23L330.16 252.27L329.52 252.29L328.87 252.3L328.22 252.29L327.57 252.27L326.93 252.23L326.29 252.18L325.66 252.11L325.04 252.03L324.42 251.93L323.8 251.82L323.2 251.7L322.59 251.55L322 251.4L321.41 251.23L320.83 251.04L320.25 250.84L319.68 250.62L319.12 250.39L318.56 250.15L318.01 249.89L317.46 249.61L316.92 249.32L316.39 249.02L315.87 248.7L315.35 248.37L314.83 248.02L314.33 247.66L313.83 247.28L313.33 246.89L312.85 246.48L312.36 246.06L311.89 245.62L311.42 245.17L310.96 244.71L310.51 244.23L310.08 243.75L309.66 243.27L309.26 242.78L308.88 242.28L308.51 241.77L308.15 241.26L307.81 240.74L307.48 240.22L307.17 239.69L306.88 239.16L306.6 238.61L306.34 238.06L306.09 237.51L305.85 236.95L305.64 236.38L305.43 235.81L305.24 235.23L305.07 234.64L304.91 234.05L304.77 233.45L304.64 232.85L304.53 232.24L304.43 231.62L304.35 231L304.28 230.37L304.23 229.73L304.19 229.09L304.17 228.44L304.16 227.79L304.17 227.13L304.19 226.49L304.23 225.84L304.29 225.21L304.36 224.57L304.45 223.95L304.55 223.33L304.67 222.72L304.8 222.11L304.95 221.51L305.12 220.91L305.3 220.32L305.49 219.73L305.71 219.15L305.93 218.58L306.18 218.01L306.44 217.45L306.71 216.9L307 216.35L307.31 215.8L307.63 215.27L307.96 214.73L308.32 214.21L308.68 213.69L309.07 213.17L309.46 212.66L309.88 212.16L310.31 211.66L310.75 211.17L311.21 210.68L311.69 210.2L312.18 209.73L312.68 209.27L313.18 208.83L313.68 208.4L314.19 207.98L314.7 207.59L315.21 207.21L315.73 206.84L316.25 206.49L316.78 206.16L317.31 205.84L317.85 205.54L318.39 205.25L318.93 204.98L319.48 204.72L320.03 204.48L320.59 204.26L321.15 204.05L321.72 203.86L322.29 203.68L322.86 203.52L323.44 203.37L324.03 203.24L324.62 203.12L325.21 203.02L325.81 202.94L326.41 202.87L327.02 202.81L327.63 202.78L328.25 202.75L328.87 202.74L329.52 202.75L330.16 202.77L330.8 202.81Z" id="f1tGKY3jxi"></path><path d="M396.67 -710L396.67 -710L390 -710L396.67 -710Z" id="b6dQklSlz"></path></defs><g><g><g><use xlink:href="#dPgoTLB21" opacity="1" fill="#000000" fill-opacity="0"></use><g><use xlink:href="#dPgoTLB21" opacity="1" fill-opacity="0" stroke="#000000" stroke-width="1" stroke-opacity="0"></use></g></g><g><use xlink:href="#dd3PakLCc" opacity="1" fill="#61dafb" fill-opacity="1"></use><g><use xlink:href="#dd3PakLCc" opacity="1" fill-opacity="0" stroke="#000000" stroke-width="1" stroke-opacity="0"></use></g></g><g><use xlink:href="#d2BHCdBFjX" opacity="1" fill="#61dafb" fill-opacity="1"></use><g><use xlink:href="#d2BHCdBFjX" opacity="1" fill-opacity="0" stroke="#000000" stroke-width="1" stroke-opacity="0"></use></g></g><g><use xlink:href="#d13wzMdDZo" opacity="1" fill="#000000" fill-opacity="0"></use><g><use xlink:href="#d13wzMdDZo" opacity="1" fill-opacity="0" stroke="#000000" stroke-width="1" stroke-opacity="0"></use></g></g><g><use xlink:href="#d9cmAA2rI" opacity="1" fill="#61dafb" fill-opacity="1"></use><g><use xlink:href="#d9cmAA2rI" opacity="1" fill-opacity="0" stroke="#000000" stroke-width="1" stroke-opacity="0"></use></g></g><g><use xlink:href="#f1tGKY3jxi" opacity="1" fill="#000000" fill-opacity="0"></use><g><use xlink:href="#f1tGKY3jxi" opacity="1" fill-opacity="0" stroke="#000000" stroke-width="1" stroke-opacity="0"></use></g></g><g><use xlink:href="#b6dQklSlz" opacity="1" fill="#264c59" fill-opacity="1"></use></g></g></g></svg>