<?xml version="1.0" encoding="UTF-8" standalone="no"?>
<!DOCTYPE svg PUBLIC "-//W3C//DTD SVG 1.1//EN" "http://www.w3.org/Graphics/SVG/1.1/DTD/svg11.dtd">
<svg version="1.1" xmlns="http://www.w3.org/2000/svg" xmlns:xlink="http://www.w3.org/1999/xlink" preserveAspectRatio="xMidYMid meet" viewBox="0 0 640 640" width="640" height="640"><defs><path d="M413.82 111.14L413.82 132.05L412.43 132.08L410.91 132.17L409.36 132.31L407.77 132.52L406.15 132.78L404.5 133.1L402.82 133.47L401.11 133.9L399.37 134.39L397.61 134.94L395.81 135.54L393.99 136.2L392.14 136.91L390.27 137.68L388.37 138.5L386.45 139.38L384.5 140.31L382.53 141.3L380.54 142.34L378.52 143.43L376.49 144.58L374.43 145.78L372.36 147.04L370.27 148.35L368.16 149.71L366.03 151.12L363.88 152.58L361.72 154.1L359.55 155.66L357.36 157.28L355.15 158.95L352.93 160.67L350.7 162.44L348.46 164.26L346.21 166.13L343.94 168.05L341.67 170.02L339.39 172.04L337.09 174.11L334.8 176.23L335.79 177.27L336.79 178.32L337.78 179.37L338.78 180.44L339.77 181.51L340.76 182.59L341.76 183.67L344.73 186.97L346.71 189.21L348.69 191.47L349.68 192.62L350.66 193.77L351.65 194.92L352.63 196.08L353.62 197.25L355.58 199.61L356.56 200.8L357.54 202L358.52 203.2L359.49 204.41L360.47 205.63L361.44 206.85L362.42 208.08L363.39 209.32L364.36 210.56L365.33 211.81L366.3 213.06L367.26 214.32L368.23 215.59L369.19 216.86L370.15 218.14L371.11 219.43L372.07 220.72L373.02 222.02L373.98 223.32L375.57 223.49L377.15 223.67L378.73 223.85L380.3 224.04L381.88 224.23L383.44 224.42L385.01 224.62L386.57 224.82L388.12 225.03L389.67 225.24L391.21 225.46L392.76 225.68L395.82 226.14L397.35 226.37L398.87 226.61L400.39 226.85L403.41 227.35L404.91 227.61L406.41 227.87L407.9 228.13L409.38 228.4L410.87 228.67L412.34 228.95L415.28 229.51L416.74 229.8L418.19 230.1L419.64 230.39L421.08 230.7L422.52 231L423.95 231.31L425.37 231.62L426.79 231.94L428.2 232.26L429.61 232.59L431.01 232.92L432.4 233.25L433.79 233.59L433.95 232.87L434.1 232.16L434.4 230.74L434.55 230.03L434.7 229.32L434.84 228.61L434.99 227.9L435.13 227.2L435.27 226.49L435.41 225.79L435.55 225.08L435.68 224.38L435.82 223.68L436.08 222.28L436.21 221.58L436.33 220.89L436.46 220.19L436.58 219.49L436.7 218.8L436.94 217.42L437.05 216.73L437.17 216.04L437.28 215.35L437.38 214.67L437.49 213.98L437.6 213.3L437.7 212.62L437.8 211.94L437.9 211.26L437.99 210.59L438.08 209.91L438.18 209.24L438.26 208.57L438.35 207.9L438.43 207.23L438.52 206.56L438.59 205.9L438.9 203.21L439.17 200.56L439.4 197.94L439.6 195.35L439.76 192.8L439.89 190.29L439.97 187.81L440.03 185.37L440.05 182.97L440.03 180.61L439.98 178.29L439.89 176.02L439.78 173.78L439.62 171.6L439.44 169.46L439.22 167.37L438.96 165.33L438.68 163.33L438.36 161.39L438.01 159.51L437.62 157.67L437.21 155.89L436.76 154.17L436.28 152.5L435.77 150.89L435.23 149.35L434.66 147.86L434.06 146.43L433.43 145.07L432.77 143.77L432.07 142.54L431.35 141.38L430.6 140.28L429.83 139.25L429.02 138.29L428.18 137.4L427.32 136.59L426.43 135.85L425.51 135.18L424.56 134.59L424.34 134.47L424.12 134.36L423.89 134.25L423.67 134.13L423.44 134.03L423.21 133.92L422.97 133.82L422.74 133.72L422.5 133.63L422.26 133.53L422.02 133.44L421.77 133.36L421.52 133.27L421.27 133.19L421.02 133.11L420.77 133.04L420.25 132.9L419.99 132.83L419.45 132.71L419.18 132.65L418.91 132.6L418.63 132.54L418.35 132.5L418.07 132.45L417.79 132.41L417.5 132.37L417.21 132.33L416.92 132.3L416.32 132.24L415.72 132.2L415.41 132.18L415.1 132.17L414.78 132.16L414.47 132.15L414.15 132.15L413.82 132.14L413.82 132.05L413.92 132.05L413.92 111.14L414.41 111.14L414.99 111.15L415.57 111.17L416.15 111.19L417.29 111.25L417.86 111.3L418.43 111.34L418.99 111.4L419.56 111.46L420.11 111.53L420.67 111.6L421.22 111.68L422.32 111.86L422.86 111.96L423.4 112.07L424.48 112.31L425.01 112.43L425.54 112.57L426.06 112.71L427.1 113.01L427.62 113.17L428.64 113.51L429.14 113.7L429.64 113.88L430.14 114.08L430.64 114.28L431.13 114.49L431.61 114.71L432.1 114.93L432.58 115.16L433.05 115.4L433.53 115.64L433.99 115.89L434.46 116.15L434.92 116.41L436.87 117.62L438.75 118.94L440.55 120.39L442.27 121.94L443.92 123.62L445.49 125.4L446.98 127.29L448.4 129.3L449.74 131.4L451.01 133.62L452.2 135.93L453.31 138.35L454.34 140.87L455.31 143.48L456.19 146.19L457 148.99L457.73 151.88L458.39 154.86L458.97 157.93L459.48 161.08L459.91 164.32L460.27 167.64L460.55 171.04L460.76 174.52L460.89 178.07L460.95 181.7L460.93 185.4L460.84 189.17L460.67 193.01L460.43 196.92L460.12 200.89L459.73 204.93L459.26 209.02L458.73 213.18L458.11 217.39L457.43 221.66L456.67 225.98L455.84 230.35L454.93 234.77L453.95 239.24L458.32 240.61L462.61 242.02L466.82 243.47L470.95 244.96L475 246.48L478.96 248.05L482.83 249.65L486.62 251.28L490.31 252.95L493.92 254.65L497.43 256.39L500.84 258.15L504.16 259.95L507.38 261.78L510.5 263.63L513.52 265.52L516.44 267.43L519.25 269.36L521.95 271.33L524.54 273.31L527.03 275.32L529.4 277.36L531.66 279.41L533.8 281.49L535.83 283.59L537.74 285.7L539.53 287.84L541.19 289.99L542.73 292.16L544.15 294.34L545.44 296.54L546.6 298.75L547.63 300.98L548.53 303.22L549.3 305.47L549.93 307.73L550.42 310L550.77 312.27L550.99 314.56L551.06 316.85L550.99 319.14L550.78 321.42L550.42 323.69L549.93 325.95L549.31 328.21L548.54 330.45L547.65 332.69L546.62 334.91L545.47 337.12L544.19 339.31L542.78 341.49L541.24 343.66L539.59 345.8L537.81 347.94L535.91 350.05L533.89 352.14L531.76 354.22L529.52 356.27L527.16 358.3L524.69 360.31L522.11 362.3L519.42 364.26L516.62 366.19L513.73 368.1L510.72 369.99L507.62 371.84L504.42 373.67L501.12 375.46L497.72 377.23L494.23 378.96L490.65 380.66L486.98 382.33L483.22 383.97L479.36 385.57L475.43 387.13L471.41 388.66L467.3 390.14L463.12 391.59L458.85 393L454.51 394.37L455.5 398.83L456.41 403.24L457.25 407.6L458.02 411.9L458.71 416.16L459.33 420.36L459.88 424.5L460.35 428.58L460.75 432.61L461.07 436.57L461.32 440.46L461.49 444.29L461.59 448.06L461.61 451.75L461.56 455.37L461.44 458.91L461.24 462.38L460.96 465.77L460.61 469.09L460.19 472.32L459.69 475.46L459.11 478.53L458.46 481.5L457.73 484.39L456.93 487.18L456.05 489.89L455.1 492.49L454.07 495L452.97 497.42L451.78 499.73L450.53 501.94L449.19 504.05L447.78 506.05L446.3 507.94L444.73 509.72L443.09 511.39L441.38 512.95L439.58 514.39L437.71 515.71L435.77 516.92L435.3 517.18L434.83 517.44L434.35 517.69L433.88 517.93L433.39 518.17L432.91 518.4L431.93 518.84L431.43 519.05L430.93 519.25L430.43 519.45L429.92 519.63L429.42 519.82L428.9 519.99L428.39 520.16L427.87 520.32L427.35 520.47L426.82 520.62L426.29 520.76L425.76 520.9L425.23 521.02L424.69 521.14L424.15 521.26L423.6 521.37L423.05 521.47L422.5 521.56L421.95 521.65L421.39 521.73L420.83 521.8L420.27 521.87L419.71 521.93L419.14 521.99L418.56 522.03L417.99 522.08L416.83 522.14L416.25 522.16L415.66 522.18L415.07 522.19L414.48 522.19L412.52 522.16L410.54 522.05L408.52 521.89L406.48 521.65L404.41 521.34L402.31 520.97L400.19 520.54L398.04 520.04L395.87 519.47L393.67 518.84L391.45 518.14L389.21 517.38L386.95 516.56L384.67 515.68L382.37 514.73L380.04 513.72L377.7 512.65L375.34 511.52L372.97 510.33L370.58 509.08L368.17 507.76L365.75 506.39L363.31 504.96L360.86 503.47L358.39 501.93L355.92 500.32L353.43 498.66L350.93 496.95L348.43 495.17L345.91 493.34L343.38 491.46L340.85 489.52L338.31 487.52L335.76 485.48L333.21 483.38L330.65 481.22L328.09 479.01L325.52 476.75L322.95 474.44L320.38 472.08L317.81 474.46L315.24 476.78L312.68 479.06L310.12 481.28L307.56 483.45L305.01 485.56L302.46 487.62L299.92 489.63L297.39 491.58L294.86 493.48L292.34 495.32L289.83 497.11L287.34 498.84L284.85 500.51L282.37 502.13L279.91 503.69L277.46 505.19L275.02 506.63L272.6 508.01L270.19 509.33L267.8 510.6L265.42 511.8L263.07 512.94L260.72 514.02L258.4 515.04L256.1 515.99L253.82 516.89L251.55 517.72L249.31 518.48L247.1 519.18L244.9 519.82L242.73 520.39L240.58 520.9L238.46 521.34L236.36 521.71L234.29 522.02L232.25 522.26L230.23 522.43L228.24 522.53L226.29 522.57L225.69 522.57L225.11 522.56L224.52 522.54L223.94 522.52L223.36 522.49L222.2 522.41L221.63 522.36L221.06 522.31L220.5 522.25L219.94 522.18L219.38 522.11L218.82 522.02L218.27 521.94L217.72 521.84L217.17 521.74L216.63 521.64L216.09 521.52L215.55 521.4L215.02 521.27L214.49 521.14L213.96 521L212.92 520.7L212.4 520.54L211.89 520.37L211.38 520.19L210.88 520.01L210.37 519.82L209.87 519.63L209.38 519.43L208.89 519.22L208.4 519L207.92 518.78L207.44 518.55L206.96 518.31L206.49 518.07L206.02 517.82L205.55 517.56L205.09 517.29L203.14 516.09L201.26 514.76L199.46 513.32L197.74 511.76L196.09 510.09L194.52 508.31L193.03 506.41L191.61 504.41L190.27 502.3L189.01 500.09L187.82 497.77L186.71 495.36L185.67 492.84L184.71 490.23L183.82 487.52L183.01 484.72L182.28 481.83L181.62 478.85L181.04 475.78L180.53 472.62L180.1 469.39L179.74 466.07L179.46 462.67L179.25 459.19L179.12 455.63L179.07 452L179.08 448.3L179.17 444.53L179.34 440.69L179.58 436.79L179.9 432.81L180.29 428.78L180.75 424.69L181.29 420.53L181.9 416.32L182.59 412.05L183.35 407.73L184.18 403.36L185.09 398.94L186.07 394.47L181.7 393.1L177.41 391.69L173.19 390.24L169.06 388.75L165.02 387.22L161.06 385.66L157.18 384.06L153.4 382.43L149.7 380.76L146.1 379.06L142.59 377.32L139.17 375.56L135.85 373.76L132.63 371.93L129.51 370.08L126.49 368.19L123.58 366.28L120.77 364.34L118.06 362.38L115.47 360.39L112.99 358.38L110.61 356.35L108.35 354.29L106.21 352.22L104.18 350.12L102.28 348L100.49 345.87L98.82 343.72L97.28 341.55L95.86 339.37L94.57 337.17L93.41 334.95L92.38 332.73L91.48 330.49L90.72 328.24L90.09 325.98L89.59 323.71L89.24 321.43L89.03 319.15L88.95 316.85L89.03 314.57L89.24 312.29L89.59 310.02L90.08 307.76L90.71 305.5L91.47 303.26L92.36 301.03L93.39 298.81L94.55 296.6L95.83 294.41L97.24 292.23L98.78 290.07L100.44 287.92L102.21 285.79L104.11 283.68L106.13 281.59L108.27 279.52L110.52 277.47L112.88 275.44L115.35 273.43L117.94 271.45L120.63 269.49L123.43 267.55L126.33 265.64L129.34 263.76L132.44 261.91L135.65 260.08L138.96 258.29L142.36 256.52L145.86 254.78L149.45 253.08L153.13 251.41L156.9 249.77L160.77 248.17L164.71 246.61L168.74 245.08L172.86 243.58L177.06 242.13L181.33 240.71L185.69 239.33L184.7 234.88L183.79 230.47L182.95 226.11L182.18 221.8L181.49 217.55L180.87 213.35L180.32 209.21L179.85 205.12L179.46 201.1L179.13 197.14L178.89 193.24L178.71 189.41L178.61 185.65L178.59 181.96L178.64 178.34L178.77 174.8L178.97 171.33L179.24 167.93L179.59 164.62L180.02 161.39L180.52 158.24L181.09 155.18L181.74 152.21L182.47 149.32L183.27 146.52L184.15 143.82L185.1 141.21L186.13 138.7L187.24 136.29L188.42 133.98L189.68 131.77L191.01 129.66L192.42 127.66L193.91 125.77L195.47 123.99L197.11 122.32L198.83 120.76L200.62 119.32L202.49 118L204.43 116.79L204.9 116.53L205.37 116.27L206.33 115.77L206.81 115.54L207.29 115.31L207.78 115.08L208.28 114.87L208.77 114.66L209.27 114.46L209.77 114.26L210.28 114.07L210.79 113.89L211.3 113.72L211.82 113.55L212.33 113.39L212.86 113.23L213.38 113.09L214.44 112.81L214.98 112.68L215.51 112.56L216.06 112.45L216.6 112.34L217.15 112.24L217.7 112.15L218.25 112.06L218.81 111.98L219.37 111.9L219.93 111.84L221.07 111.72L221.64 111.67L222.21 111.63L223.95 111.54L224.54 111.53L225.13 111.52L225.72 111.52L225.72 111.42L227.68 111.46L229.67 111.56L231.68 111.73L233.72 111.97L235.8 112.27L237.89 112.64L240.01 113.08L242.16 113.58L244.33 114.14L246.53 114.77L248.75 115.47L250.99 116.23L253.25 117.05L255.53 117.94L257.84 118.88L260.16 119.89L262.5 120.96L264.86 122.09L267.23 123.29L269.63 124.54L272.03 125.85L274.46 127.22L276.89 128.65L279.34 130.14L281.81 131.69L284.28 133.29L286.77 134.95L289.27 136.67L291.78 138.44L294.29 140.27L296.82 142.16L299.35 144.09L301.89 146.09L304.44 148.14L306.99 150.24L309.55 152.39L312.11 154.6L314.68 156.86L317.25 159.17L319.82 161.53L322.39 159.16L324.96 156.83L327.52 154.56L330.09 152.34L332.64 150.17L335.2 148.05L337.74 145.99L340.28 143.98L342.82 142.03L345.34 140.13L347.86 138.29L350.37 136.5L352.87 134.77L355.35 133.1L357.83 131.48L360.29 129.93L362.74 128.43L365.18 126.98L367.6 125.6L370.01 124.28L372.4 123.02L374.78 121.81L377.14 120.67L379.48 119.59L381.8 118.57L384.1 117.62L386.39 116.73L388.65 115.9L390.89 115.13L393.11 114.43L395.3 113.79L397.47 113.22L399.62 112.71L401.75 112.27L403.84 111.9L405.91 111.59L407.96 111.35L409.97 111.18L411.96 111.08L413.92 111.04L413.92 111.14L413.82 111.14ZM205.92 401.54L205.76 402.26L205.61 402.97L205.46 403.68L205.32 404.39L205.17 405.09L205.03 405.8L204.88 406.51L204.74 407.21L204.6 407.92L204.47 408.62L204.33 409.32L204.2 410.03L204.07 410.73L203.94 411.43L203.81 412.12L203.68 412.82L203.56 413.52L203.43 414.21L203.31 414.91L203.19 415.6L203.08 416.29L202.96 416.98L202.85 417.67L202.74 418.35L202.63 419.04L202.52 419.72L202.42 420.41L202.22 421.77L202.12 422.44L202.02 423.12L201.93 423.8L201.84 424.47L201.75 425.14L201.66 425.81L201.58 426.48L201.5 427.15L201.42 427.81L201.11 430.49L200.84 433.15L200.61 435.77L200.41 438.35L200.25 440.9L200.13 443.42L200.04 445.9L199.99 448.34L199.97 450.74L199.98 453.1L200.03 455.42L200.12 457.69L200.24 459.92L200.39 462.11L200.58 464.25L200.8 466.34L201.05 468.38L201.34 470.37L201.66 472.31L202.01 474.2L202.39 476.04L202.81 477.81L203.25 479.54L203.73 481.2L204.24 482.81L204.78 484.36L205.35 485.85L205.95 487.27L206.59 488.64L207.25 489.93L207.94 491.17L208.66 492.33L209.41 493.43L210.19 494.46L211 495.42L211.83 496.3L212.7 497.12L213.59 497.86L214.51 498.52L215.45 499.11L215.67 499.23L215.88 499.35L216.32 499.57L216.55 499.68L216.78 499.78L217.01 499.89L217.24 499.98L217.47 500.08L217.95 500.26L218.2 500.35L218.44 500.44L218.69 500.52L218.95 500.6L219.2 500.67L219.46 500.75L219.72 500.82L219.98 500.89L220.25 500.95L220.51 501.01L220.78 501.07L221.06 501.13L221.33 501.18L221.61 501.23L221.89 501.28L222.18 501.33L222.46 501.37L222.75 501.41L223.04 501.45L223.34 501.48L223.63 501.51L223.93 501.54L224.23 501.56L224.54 501.59L224.85 501.61L225.15 501.62L225.47 501.64L225.78 501.65L226.1 501.66L227.58 501.63L229.1 501.54L230.66 501.39L232.24 501.19L233.86 500.93L235.51 500.61L237.19 500.24L238.9 499.8L240.64 499.31L242.41 498.77L244.2 498.17L246.02 497.51L247.87 496.8L249.75 496.03L251.65 495.21L253.57 494.33L255.52 493.39L257.48 492.41L259.48 491.37L261.49 490.27L263.52 489.12L265.58 487.92L267.65 486.67L269.75 485.36L271.86 484L273.98 482.59L276.13 481.13L278.29 479.61L280.47 478.04L282.66 476.42L284.86 474.76L287.08 473.04L289.31 471.27L291.55 469.44L293.81 467.57L296.07 465.65L298.34 463.68L300.63 461.67L302.92 459.6L305.22 457.48L304.22 456.44L303.23 455.39L302.23 454.33L301.24 453.27L300.24 452.2L299.25 451.12L298.26 450.03L297.26 448.94L296.27 447.84L294.29 445.62L293.3 444.5L292.31 443.37L291.32 442.23L290.34 441.09L289.35 439.94L288.37 438.79L287.38 437.62L286.4 436.45L285.41 435.28L284.43 434.09L282.47 431.71L281.5 430.5L279.54 428.08L278.57 426.86L277.6 425.63L276.62 424.39L275.65 423.15L274.69 421.9L273.72 420.65L272.75 419.39L271.79 418.12L270.82 416.84L269.86 415.57L268.9 414.28L267.95 412.99L266.03 410.39L264.45 410.21L262.86 410.04L261.28 409.86L259.71 409.67L258.14 409.48L256.57 409.29L255.01 409.09L253.45 408.88L251.89 408.68L250.34 408.46L248.8 408.25L247.26 408.03L245.72 407.8L242.66 407.34L241.14 407.1L239.63 406.85L238.11 406.61L236.61 406.36L235.1 406.1L233.61 405.84L232.12 405.58L230.63 405.31L229.15 405.03L227.67 404.76L226.2 404.48L221.82 403.61L220.38 403.31L218.93 403.01L217.5 402.71L216.07 402.4L214.64 402.08L213.22 401.77L211.81 401.44L210.41 401.12L209 400.79L207.61 400.46L206.22 400.12L206.07 400.83L205.92 401.54ZM431.2 400.61L429.8 400.95L428.39 401.28L426.98 401.61L425.56 401.93L424.13 402.25L421.27 402.87L419.82 403.18L416.92 403.78L414 404.36L412.52 404.64L411.05 404.92L409.56 405.2L408.08 405.47L406.58 405.73L405.09 405.99L403.58 406.25L400.56 406.75L399.04 407L397.51 407.24L395.98 407.47L394.45 407.7L392.91 407.93L391.37 408.15L389.82 408.37L386.7 408.79L385.14 408.99L382 409.39L380.42 409.58L378.84 409.76L377.26 409.94L375.67 410.12L374.07 410.29L373.13 411.6L372.19 412.89L371.24 414.18L370.3 415.47L369.35 416.75L368.39 418.02L367.44 419.28L366.48 420.54L365.52 421.79L364.56 423.04L363.6 424.28L362.64 425.51L361.67 426.74L360.7 427.96L359.74 429.17L358.77 430.38L357.79 431.58L356.82 432.77L355.85 433.95L354.87 435.13L353.89 436.31L352.91 437.47L351.93 438.63L350.95 439.79L348.99 442.07L348.01 443.2L347.02 444.33L346.04 445.45L345.05 446.56L344.07 447.66L343.08 448.76L341.1 450.94L340.12 452.01L339.13 453.08L338.14 454.15L336.16 456.25L335.17 457.29L337.47 459.4L339.76 461.45L342.05 463.45L344.32 465.41L346.59 467.32L348.84 469.18L351.09 470.99L353.32 472.74L355.54 474.45L357.75 476.11L359.94 477.72L362.12 479.28L364.28 480.78L366.43 482.24L368.56 483.64L370.67 484.99L372.77 486.29L374.84 487.54L376.9 488.73L378.94 489.87L380.95 490.96L382.94 491.99L384.91 492.97L386.86 493.9L388.79 494.77L390.69 495.59L392.56 496.36L394.41 497.06L396.23 497.72L398.02 498.31L399.79 498.86L401.52 499.34L403.23 499.77L404.91 500.15L406.55 500.46L408.17 500.72L409.75 500.93L411.3 501.07L412.81 501.16L414.29 501.19L414.62 501.18L414.94 501.18L415.26 501.17L415.57 501.16L415.89 501.15L416.2 501.13L416.51 501.12L416.81 501.09L417.11 501.07L417.42 501.04L417.71 501.01L418.01 500.98L418.59 500.9L418.88 500.86L419.16 500.81L419.45 500.76L419.72 500.71L420 500.66L420.27 500.6L420.54 500.54L421.08 500.4L421.6 500.26L421.85 500.18L422.11 500.1L422.36 500.01L422.6 499.93L422.85 499.84L423.33 499.64L423.56 499.54L423.8 499.44L424.03 499.33L424.25 499.22L424.91 498.86L425.12 498.74L426.06 498.14L426.98 497.47L427.86 496.72L428.72 495.9L429.55 495.01L430.35 494.05L431.12 493.01L431.86 491.91L432.58 490.74L433.26 489.5L433.91 488.2L434.54 486.83L435.13 485.41L435.7 483.92L436.23 482.36L436.73 480.75L437.2 479.08L437.64 477.36L438.05 475.58L438.43 473.74L438.77 471.85L439.09 469.91L439.36 467.92L439.61 465.87L439.82 463.78L440 461.64L440.15 459.45L440.26 457.22L440.34 454.95L440.38 452.63L440.39 450.27L440.37 447.87L440.31 445.43L440.21 442.95L440.08 440.43L439.91 437.88L439.71 435.3L439.47 432.68L439.19 430.02L438.88 427.34L438.8 426.68L438.72 426.02L438.63 425.36L438.55 424.7L438.46 424.04L438.37 423.37L438.27 422.71L438.18 422.04L438.08 421.37L437.98 420.7L437.88 420.03L437.77 419.35L437.66 418.68L437.55 418L437.44 417.33L437.33 416.65L437.21 415.97L437.09 415.29L436.97 414.6L436.85 413.92L436.73 413.23L436.6 412.54L436.47 411.86L436.34 411.17L436.21 410.47L436.07 409.78L435.94 409.09L435.66 407.69L435.51 406.99L435.37 406.29L434.92 404.19L434.77 403.48L434.61 402.77L434.46 402.06L434.3 401.35L434.14 400.64L433.98 399.93L432.59 400.27L431.2 400.61ZM343.12 412.61L342.13 412.66L341.13 412.7L340.13 412.74L339.14 412.78L338.14 412.82L337.13 412.85L336.13 412.88L335.12 412.91L334.12 412.94L333.11 412.96L332.1 412.99L330.08 413.03L329.07 413.05L328.06 413.06L327.04 413.07L326.03 413.09L325.01 413.1L323.99 413.1L322.97 413.11L321.95 413.11L320.93 413.12L318.9 413.12L317.89 413.11L316.88 413.11L315.88 413.1L314.87 413.09L313.86 413.07L312.86 413.06L311.86 413.04L310.85 413.02L307.85 412.96L306.86 412.93L304.86 412.87L303.87 412.84L302.88 412.81L301.89 412.77L300.9 412.74L299.91 412.7L298.92 412.66L297.94 412.62L296.95 412.58L294.99 412.5L294.01 412.46L295.01 413.73L297.01 416.23L298.02 417.48L300.02 419.94L301.03 421.15L302.03 422.36L303.04 423.56L304.05 424.75L305.05 425.93L306.06 427.11L308.08 429.43L309.08 430.57L310.09 431.71L311.1 432.84L312.11 433.96L313.12 435.07L315.14 437.27L317.16 439.43L318.17 440.49L319.18 441.55L320.2 442.6L321.2 441.55L323.2 439.43L325.2 437.27L326.2 436.17L327.21 435.07L328.21 433.96L329.21 432.84L330.21 431.71L331.22 430.57L332.22 429.43L334.22 427.11L335.22 425.93L336.21 424.75L337.21 423.56L338.2 422.36L339.2 421.15L340.19 419.94L341.18 418.71L342.17 417.48L343.15 416.23L344.14 414.98L345.12 413.73L346.1 412.46L344.12 412.56L343.12 412.61ZM316.79 241.7L315.71 241.71L313.57 241.73L312.5 241.75L310.36 241.79L309.29 241.81L308.22 241.84L307.15 241.86L306.08 241.89L305.01 241.93L303.94 241.96L302.88 242L300.74 242.08L299.68 242.12L298.61 242.17L297.55 242.22L296.48 242.27L295.42 242.32L293.3 242.44L292.23 242.5L291.17 242.56L290.11 242.63L289.05 242.69L286.93 242.83L285.87 242.91L284.82 242.98L282.7 243.14L281.65 243.22L280.59 243.31L279.54 243.39L278.49 243.48L277.43 243.57L276.85 244.41L276.26 245.26L275.1 246.96L274.51 247.81L273.35 249.53L272.77 250.4L272.2 251.26L271.62 252.13L271.04 253.01L270.47 253.88L269.9 254.76L269.32 255.64L267.61 258.31L267.04 259.2L266.47 260.1L265.91 261L265.34 261.9L264.77 262.8L264.21 263.71L263.64 264.62L263.08 265.54L262.52 266.45L261.4 268.29L260.84 269.22L260.28 270.14L259.16 272L258.61 272.94L258.05 273.88L257.5 274.82L256.94 275.76L256.39 276.7L255.84 277.65L255.28 278.6L254.73 279.55L254.2 280.48L253.68 281.41L253.15 282.33L252.63 283.26L252.11 284.19L251.59 285.12L251.07 286.06L250.55 286.99L250.04 287.92L249.53 288.86L249.02 289.79L248.51 290.73L248 291.66L247.5 292.6L246 295.42L245.51 296.36L245.01 297.3L244.52 298.24L244.04 299.18L243.55 300.12L243.07 301.07L242.59 302.01L242.11 302.95L241.63 303.9L240.69 305.78L240.22 306.73L239.75 307.67L239.29 308.62L238.83 309.57L238.37 310.51L237.91 311.46L237.46 312.4L236.56 314.3L236.12 315.24L235.67 316.19L235.23 317.14L235.68 318.08L236.13 319.03L236.58 319.97L237.03 320.92L237.49 321.86L237.94 322.81L238.4 323.75L238.86 324.7L239.33 325.64L239.79 326.58L240.26 327.53L241.2 329.41L241.68 330.35L242.15 331.29L243.11 333.17L243.6 334.11L244.08 335.05L244.57 335.99L245.06 336.92L245.55 337.86L246.05 338.8L246.55 339.73L247.05 340.67L247.55 341.6L248.05 342.54L248.56 343.47L249.07 344.4L249.58 345.34L250.09 346.27L250.61 347.2L251.13 348.13L252.17 349.99L252.7 350.92L253.23 351.84L254.29 353.7L254.83 354.62L255.38 355.57L256.48 357.45L257.04 358.39L257.59 359.33L259.27 362.12L259.83 363.04L260.39 363.97L260.95 364.89L261.51 365.8L262.08 366.72L262.64 367.63L263.21 368.54L263.77 369.45L264.91 371.25L265.48 372.15L266.05 373.05L266.62 373.94L267.19 374.84L267.76 375.72L268.34 376.61L268.91 377.49L269.49 378.37L270.06 379.25L270.64 380.13L271.22 381L271.79 381.87L272.37 382.74L273.53 384.46L274.12 385.32L274.7 386.18L275.28 387.03L275.86 387.88L276.45 388.73L277.03 389.57L277.62 390.42L278.67 390.5L279.71 390.58L280.76 390.66L282.86 390.82L283.91 390.89L284.96 390.97L286.02 391.04L287.07 391.11L288.12 391.17L289.18 391.24L290.24 391.3L291.29 391.36L294.47 391.54L298.71 391.74L299.77 391.78L300.83 391.82L301.89 391.86L302.96 391.9L304.02 391.94L305.08 391.97L306.15 392L307.21 392.03L308.28 392.06L309.34 392.09L311.48 392.13L312.54 392.15L313.61 392.16L314.67 392.18L316.81 392.2L317.87 392.2L318.94 392.21L321.08 392.21L322.15 392.2L323.23 392.2L325.37 392.18L326.44 392.16L327.51 392.15L328.58 392.13L329.66 392.11L330.73 392.08L331.8 392.06L332.86 392.03L333.93 392L335 391.97L336.07 391.93L337.14 391.9L338.2 391.86L339.27 391.81L340.33 391.77L341.4 391.72L342.46 391.68L343.53 391.62L344.59 391.57L345.66 391.51L346.72 391.46L347.78 391.4L348.84 391.33L349.9 391.27L354.14 390.99L355.2 390.91L356.25 390.84L357.31 390.76L358.37 390.67L359.42 390.59L360.47 390.5L361.53 390.41L362.58 390.32L363.17 389.48L363.75 388.64L364.34 387.79L364.92 386.93L365.5 386.08L366.08 385.22L367.24 383.5L367.82 382.63L368.39 381.76L368.97 380.89L369.54 380.01L370.12 379.13L371.26 377.37L372.4 375.59L372.97 374.69L373.54 373.8L374.11 372.9L374.67 372L375.24 371.09L375.8 370.18L376.37 369.27L376.93 368.36L377.49 367.44L378.06 366.52L378.62 365.6L379.18 364.68L379.73 363.75L381.41 360.96L381.96 360.02L382.52 359.08L383.07 358.14L383.63 357.19L384.18 356.24L385.28 354.34L385.81 353.42L386.34 352.49L386.86 351.56L387.9 349.7L388.42 348.77L388.94 347.84L389.45 346.91L389.96 345.97L390.47 345.04L390.98 344.1L391.49 343.17L392.49 341.29L392.99 340.36L393.49 339.42L393.98 338.48L394.48 337.54L394.97 336.6L395.45 335.66L395.94 334.71L396.42 333.77L396.91 332.83L397.39 331.89L397.86 330.94L398.34 330L398.81 329.06L399.29 328.11L399.76 327.17L400.22 326.22L400.69 325.28L401.61 323.38L402.07 322.44L402.53 321.49L402.98 320.55L403.88 318.65L404.33 317.71L404.78 316.76L404.33 315.81L403.88 314.87L403.43 313.92L402.98 312.98L402.53 312.03L402.07 311.09L401.61 310.14L401.15 309.2L400.69 308.25L398.34 303.55L397.86 302.6L396.9 300.72L396.42 299.79L394.46 296.03L393.96 295.1L393.47 294.16L392.97 293.23L392.47 292.29L391.96 291.36L391.45 290.42L390.95 289.49L390.43 288.56L389.92 287.63L389.4 286.7L388.89 285.77L388.36 284.84L387.32 282.98L386.79 282.05L386.26 281.12L385.72 280.2L385.19 279.27L384.64 278.33L384.08 277.38L383.53 276.44L382.97 275.5L382.42 274.57L381.3 272.71L380.75 271.78L380.19 270.85L379.63 269.93L379.06 269.01L378.5 268.09L377.94 267.18L377.37 266.26L376.81 265.35L376.24 264.45L375.67 263.54L375.11 262.64L374.54 261.74L373.97 260.84L373.4 259.95L372.82 259.06L371.68 257.28L371.1 256.4L370.53 255.52L369.95 254.64L369.38 253.77L368.8 252.89L368.22 252.02L367.64 251.16L367.06 250.29L366.48 249.43L365.9 248.57L365.32 247.72L364.73 246.86L364.15 246.01L363.56 245.16L362.98 244.32L362.39 243.48L361.35 243.39L359.25 243.23L358.2 243.15L357.15 243.08L356.1 243L354 242.86L352.94 242.79L351.89 242.72L350.83 242.66L349.78 242.59L348.72 242.53L347.66 242.47L346.61 242.42L345.55 242.36L342.37 242.21L341.31 242.16L340.24 242.11L339.18 242.07L338.12 242.03L337.06 241.99L335.99 241.96L334.93 241.92L333.86 241.89L332.8 241.86L331.73 241.83L330.67 241.81L329.6 241.79L328.54 241.77L327.47 241.75L326.41 241.73L324.27 241.71L323.21 241.7L322.14 241.69L317.86 241.69L316.79 241.7ZM223.09 345.36L222.54 346.81L221.99 348.25L221.45 349.7L220.39 352.58L219.86 354.03L219.34 355.47L218.83 356.91L218.32 358.35L217.82 359.78L217.33 361.22L216.84 362.65L216.35 364.08L215.41 366.94L214.95 368.37L214.49 369.79L214.04 371.21L213.6 372.63L213.17 374.05L212.74 375.46L211.9 378.28L211.5 379.68L212.92 380.02L214.36 380.37L215.79 380.7L217.23 381.03L218.68 381.36L220.13 381.68L221.58 381.99L223.05 382.3L224.51 382.61L225.98 382.91L227.46 383.21L228.93 383.5L230.42 383.79L231.91 384.07L233.4 384.35L236.4 384.89L237.91 385.16L239.42 385.42L240.93 385.67L242.45 385.93L243.98 386.17L245.51 386.42L247.04 386.66L248.58 386.89L250.12 387.12L249.58 386.29L249.05 385.47L248.52 384.63L247.99 383.8L247.46 382.97L246.94 382.13L246.41 381.3L245.88 380.46L245.36 379.62L244.83 378.78L244.31 377.93L243.79 377.09L243.26 376.24L242.22 374.54L241.7 373.69L241.18 372.84L240.67 371.98L240.15 371.12L239.63 370.27L239.12 369.41L238.6 368.54L238.09 367.68L237.58 366.82L237.06 365.95L236.55 365.08L236.04 364.21L235.54 363.34L235.03 362.47L234.54 361.6L234.04 360.73L233.55 359.86L232.57 358.12L232.08 357.25L231.6 356.39L231.12 355.52L230.65 354.65L230.17 353.78L228.76 351.17L228.3 350.3L227.38 348.56L226.92 347.69L226.46 346.82L225.56 345.08L225.11 344.21L224.21 342.47L223.65 343.92L223.09 345.36ZM414.36 344.71L413.91 345.58L413.46 346.45L413 347.33L412.54 348.2L412.08 349.07L411.62 349.95L411.16 350.82L410.7 351.7L410.23 352.57L409.76 353.45L409.29 354.32L408.82 355.2L408.34 356.07L407.86 356.95L406.9 358.69L406.42 359.57L405.93 360.44L405.44 361.31L404.95 362.18L404.46 363.06L403.46 364.8L402.96 365.68L402.46 366.55L401.95 367.43L401.44 368.3L400.93 369.18L400.42 370.05L399.9 370.92L399.39 371.79L398.87 372.65L398.35 373.52L397.83 374.38L397.31 375.24L396.78 376.1L396.26 376.96L395.73 377.81L395.21 378.67L393.09 382.07L392.56 382.91L392.03 383.76L391.49 384.6L389.9 387.12L391.45 386.89L393 386.65L394.54 386.41L396.08 386.17L397.61 385.92L399.14 385.66L400.67 385.4L402.19 385.14L403.71 384.87L405.22 384.59L406.73 384.31L408.23 384.03L409.72 383.74L411.22 383.45L414.18 382.85L415.66 382.54L417.13 382.23L418.6 381.91L420.06 381.6L424.41 380.61L425.84 380.27L427.28 379.93L428.7 379.58L428.29 378.17L427 373.91L426.56 372.48L426.11 371.05L425.65 369.62L425.19 368.19L424.72 366.75L424.24 365.31L423.76 363.87L423.27 362.43L422.77 360.98L422.27 359.54L421.76 358.09L421.24 356.64L420.72 355.19L420.19 353.74L419.65 352.28L419.11 350.83L418.56 349.38L417.44 346.46L416.87 345.01L416.29 343.55L415.71 342.1L415.26 342.97L414.36 344.71ZM189.5 260.12L188.82 260.34L187.46 260.78L186.78 261.01L186.1 261.23L185.43 261.45L184.75 261.68L184.08 261.91L183.41 262.13L181.4 262.82L180.74 263.05L180.07 263.28L179.41 263.52L178.75 263.75L178.09 263.99L177.44 264.22L176.78 264.46L175.48 264.94L174.83 265.18L174.18 265.42L173.54 265.66L172.9 265.91L172.26 266.15L171.62 266.4L170.99 266.65L170.36 266.89L169.73 267.14L169.1 267.4L168.47 267.65L167.85 267.9L167.23 268.16L166.61 268.41L166 268.67L165.39 268.93L164.78 269.19L162.3 270.26L159.87 271.34L157.48 272.45L155.14 273.56L152.85 274.69L150.6 275.83L148.41 276.99L146.26 278.15L144.17 279.33L142.13 280.52L140.15 281.72L138.21 282.92L136.34 284.14L134.51 285.36L132.75 286.58L131.04 287.81L129.4 289.05L127.81 290.29L126.28 291.53L124.82 292.78L123.42 294.02L122.08 295.27L120.8 296.51L119.59 297.76L118.45 299L117.37 300.24L116.36 301.48L115.42 302.71L114.56 303.93L113.76 305.15L113.03 306.37L112.38 307.57L111.79 308.77L111.29 309.96L110.86 311.14L110.5 312.31L110.23 313.46L110.03 314.61L109.91 315.74L109.87 316.85L109.91 317.97L110.03 319.1L110.23 320.24L110.5 321.4L110.86 322.56L111.29 323.74L111.79 324.93L112.38 326.12L113.03 327.33L113.76 328.54L114.56 329.76L115.42 330.98L116.36 332.21L117.37 333.44L118.45 334.68L119.59 335.92L120.8 337.16L122.08 338.41L123.42 339.65L124.82 340.9L126.28 342.14L127.81 343.38L129.4 344.62L131.04 345.85L132.75 347.08L134.51 348.31L136.34 349.53L138.21 350.74L140.15 351.95L142.13 353.15L144.17 354.34L146.26 355.52L148.41 356.68L150.6 357.84L152.85 358.99L155.14 360.12L157.48 361.24L159.87 362.35L162.3 363.44L164.78 364.51L165.39 364.78L166.01 365.03L166.63 365.29L167.26 365.55L167.88 365.81L168.51 366.06L169.14 366.32L169.77 366.57L170.41 366.82L171.05 367.08L171.69 367.33L172.33 367.57L172.97 367.82L174.27 368.32L174.92 368.56L175.57 368.8L176.22 369.05L177.54 369.53L178.2 369.77L178.87 370.01L179.53 370.25L180.2 370.48L180.87 370.72L181.54 370.95L182.22 371.19L182.89 371.42L183.57 371.65L184.93 372.11L185.62 372.34L186.3 372.56L186.99 372.79L187.68 373.01L188.37 373.24L189.06 373.46L189.76 373.68L190.45 373.9L191.15 374.12L191.55 372.74L191.96 371.36L192.37 369.98L193.21 367.2L193.64 365.81L194.52 363.01L194.97 361.61L195.43 360.21L195.89 358.8L196.83 355.98L197.31 354.57L197.8 353.16L198.8 350.32L199.3 348.89L199.82 347.47L200.86 344.61L201.39 343.18L201.93 341.74L202.48 340.31L203.03 338.87L203.59 337.43L204.15 335.98L204.72 334.54L205.3 333.09L205.88 331.64L206.47 330.19L207.07 328.74L207.67 327.28L208.28 325.82L208.89 324.37L209.51 322.9L210.14 321.44L210.78 319.98L211.42 318.51L212.06 317.04L211.41 315.57L210.76 314.09L210.12 312.62L209.49 311.15L208.86 309.68L208.24 308.22L207.62 306.75L207.01 305.29L205.81 302.37L205.22 300.91L204.64 299.46L204.06 298.01L203.49 296.56L202.92 295.11L202.37 293.66L201.81 292.22L200.73 289.34L200.2 287.9L199.67 286.47L199.15 285.03L198.63 283.6L198.13 282.18L197.63 280.75L197.13 279.33L196.64 277.91L195.68 275.07L195.21 273.66L194.29 270.84L193.84 269.44L192.96 266.64L192.53 265.24L192.11 263.84L191.69 262.45L191.28 261.06L190.87 259.68L190.19 259.9L189.5 260.12ZM447.96 262.35L447.55 263.73L447.13 265.12L446.71 266.51L446.28 267.9L445.84 269.3L445.4 270.69L444.95 272.09L444.49 273.5L444.03 274.9L443.09 277.72L442.6 279.14L442.12 280.55L441.62 281.97L441.12 283.39L440.62 284.81L440.1 286.24L439.58 287.67L439.06 289.1L438.52 290.53L437.99 291.96L437.44 293.4L436.89 294.84L435.77 297.72L435.2 299.17L434.62 300.61L434.04 302.06L433.45 303.52L432.85 304.97L432.25 306.42L431.03 309.34L430.4 310.8L429.78 312.26L427.86 316.67L429.16 319.61L429.8 321.09L430.43 322.56L431.06 324.02L431.68 325.49L432.3 326.96L432.91 328.42L433.51 329.88L434.11 331.34L434.7 332.79L435.28 334.25L435.86 335.7L437 338.6L437.55 340.04L438.11 341.49L439.19 344.37L439.72 345.81L440.25 347.24L440.77 348.67L441.28 350.1L441.79 351.53L442.29 352.96L442.79 354.38L443.28 355.8L443.76 357.22L444.23 358.63L444.7 360.04L445.17 361.45L446.07 364.27L446.52 365.67L446.96 367.07L447.39 368.47L447.81 369.86L448.23 371.25L448.64 372.64L449.05 374.03L449.73 373.81L450.42 373.59L451.78 373.15L452.46 372.92L453.82 372.48L454.49 372.25L455.17 372.03L458.52 370.88L459.18 370.65L459.85 370.42L460.51 370.19L461.17 369.95L461.83 369.72L462.48 369.48L463.14 369.25L463.79 369.01L464.44 368.77L465.09 368.53L465.73 368.29L466.38 368.04L467.02 367.8L467.66 367.55L468.3 367.31L471.45 366.06L472.07 365.8L472.69 365.55L473.31 365.29L473.92 365.03L475.14 364.51L477.62 363.45L480.05 362.36L482.44 361.26L484.78 360.15L487.07 359.02L489.32 357.87L491.51 356.72L493.66 355.55L495.75 354.37L497.79 353.19L499.78 351.99L501.71 350.78L503.59 349.57L505.41 348.35L507.17 347.12L508.88 345.89L510.53 344.66L512.12 343.42L513.65 342.18L515.11 340.93L516.52 339.69L517.86 338.44L519.14 337.19L520.35 335.95L521.49 334.71L522.57 333.47L523.58 332.23L524.53 331L525.4 329.77L526.2 328.55L526.93 327.34L527.59 326.13L528.18 324.93L528.69 323.75L529.13 322.57L529.49 321.4L529.77 320.24L529.97 319.1L530.1 317.97L530.15 316.85L530.11 315.74L529.99 314.61L529.79 313.46L529.51 312.31L529.16 311.14L528.73 309.97L528.22 308.78L527.64 307.58L526.98 306.38L526.26 305.17L525.46 303.95L524.59 302.73L523.65 301.5L522.64 300.26L521.56 299.02L520.42 297.78L519.21 296.54L517.94 295.3L516.6 294.05L515.2 292.81L513.73 291.57L512.2 290.33L510.62 289.09L508.97 287.85L507.26 286.62L505.5 285.4L503.68 284.18L501.8 282.96L499.87 281.76L497.88 280.56L495.84 279.37L493.75 278.19L491.61 277.02L489.41 275.86L487.17 274.72L484.87 273.58L482.53 272.46L480.15 271.36L477.71 270.27L475.23 269.19L473.99 268.67L473.36 268.41L472.73 268.16L471.47 267.64L470.19 267.14L469.55 266.88L468.91 266.63L468.27 266.38L467.62 266.13L466.98 265.88L466.33 265.64L465.68 265.39L465.02 265.15L464.37 264.9L461.73 263.94L459.72 263.22L459.05 262.99L458.38 262.75L457.71 262.52L455.67 261.83L454.99 261.6L454.3 261.37L453.62 261.14L452.93 260.92L452.24 260.69L451.55 260.47L450.86 260.25L450.16 260.03L449.47 259.8L448.77 259.58L448.37 260.96L447.96 262.35ZM245.38 247.29L243.84 247.54L242.31 247.79L240.77 248.04L239.25 248.3L236.21 248.84L234.7 249.11L233.19 249.39L230.19 249.95L228.7 250.24L227.22 250.54L225.73 250.84L222.79 251.44L221.32 251.75L219.86 252.07L218.41 252.39L216.96 252.71L215.51 253.03L214.07 253.36L212.64 253.69L211.22 254.03L211.63 255.44L212.05 256.86L212.48 258.28L212.92 259.7L213.36 261.13L213.81 262.56L214.27 263.99L214.73 265.43L215.2 266.86L215.68 268.3L216.16 269.74L216.65 271.19L217.15 272.63L217.65 274.08L218.16 275.52L218.68 276.97L219.2 278.42L219.73 279.88L220.81 282.78L221.36 284.24L221.92 285.69L222.48 287.15L223.05 288.6L223.63 290.06L224.21 291.52L224.66 290.65L225.11 289.78L226.01 288.04L226.46 287.17L226.92 286.3L227.38 285.43L227.83 284.56L228.3 283.69L228.76 282.82L229.22 281.95L230.63 279.34L231.1 278.47L232.06 276.73L232.54 275.87L233.5 274.13L235.46 270.65L235.96 269.78L236.46 268.91L237.46 267.15L237.97 266.28L238.48 265.4L238.99 264.53L240.01 262.79L241.05 261.05L241.57 260.19L242.09 259.33L242.61 258.47L243.13 257.61L244.19 255.89L244.71 255.04L245.24 254.19L245.77 253.33L246.3 252.49L246.83 251.64L247.36 250.79L247.89 249.95L248.43 249.1L248.96 248.26L249.49 247.42L250.02 246.59L246.92 247.05L245.38 247.29ZM390.87 248.24L391.4 249.07L391.93 249.9L392.46 250.74L392.99 251.57L393.52 252.41L394.05 253.25L394.58 254.09L395.11 254.93L395.64 255.77L396.17 256.62L396.69 257.47L397.21 258.31L397.74 259.16L398.26 260.02L398.78 260.87L399.29 261.72L399.81 262.58L400.32 263.44L400.84 264.3L401.35 265.16L401.86 266.03L402.36 266.89L402.87 267.76L403.37 268.63L403.88 269.5L404.88 271.24L405.38 272.1L405.88 272.97L407.35 275.58L407.84 276.45L408.8 278.19L409.27 279.06L409.75 279.93L410.69 281.67L411.15 282.54L411.62 283.41L413.46 286.89L413.91 287.76L414.36 288.62L415.71 291.23L416.27 289.79L416.83 288.34L417.38 286.9L417.92 285.45L418.47 284.01L419 282.56L420.06 279.68L420.58 278.24L421.09 276.8L421.6 275.36L422.1 273.92L423.08 271.06L423.56 269.62L424.04 268.19L424.51 266.77L424.97 265.34L425.43 263.92L425.88 262.5L426.32 261.08L426.75 259.66L427.18 258.25L427.6 256.84L428.02 255.43L428.42 254.03L426.99 253.68L425.56 253.34L424.13 253.01L422.69 252.68L421.24 252.35L419.79 252.03L418.33 251.71L416.87 251.4L415.41 251.1L413.94 250.8L412.46 250.5L410.98 250.21L409.5 249.92L406.52 249.36L405.02 249.08L403.52 248.81L402.01 248.55L398.99 248.03L397.47 247.78L395.94 247.53L392.88 247.05L389.8 246.59L390.34 247.41L390.87 248.24ZM225.4 132.52L225.08 132.53L224.76 132.53L224.44 132.54L224.13 132.56L223.82 132.57L223.51 132.59L223.2 132.61L222.9 132.64L222.6 132.66L222.3 132.7L222 132.73L221.71 132.77L221.42 132.81L221.14 132.85L220.85 132.89L220.57 132.94L220.29 133L220.01 133.05L219.47 133.17L219.2 133.24L218.94 133.3L218.68 133.38L218.42 133.45L218.16 133.53L217.91 133.61L217.66 133.69L217.16 133.87L216.92 133.97L216.69 134.06L216.45 134.16L216.22 134.27L215.99 134.38L215.76 134.49L215.54 134.6L215.1 134.84L214.89 134.97L213.95 135.57L213.04 136.24L212.15 136.98L211.29 137.81L210.47 138.7L209.67 139.66L208.89 140.7L208.15 141.8L207.44 142.97L206.75 144.2L206.1 145.51L205.47 146.87L204.88 148.3L204.32 149.79L203.78 151.34L203.28 152.95L202.81 154.62L202.37 156.35L201.96 158.13L201.58 159.97L201.24 161.86L200.93 163.8L200.65 165.79L200.4 167.83L200.19 169.93L200.01 172.07L199.86 174.25L199.75 176.48L199.67 178.76L199.63 181.08L199.62 183.44L199.65 185.84L199.71 188.28L199.8 190.76L199.94 193.27L200.1 195.83L200.31 198.41L200.55 201.03L200.82 203.68L201.14 206.37L201.22 207.02L201.31 207.68L201.4 208.34L201.49 209.01L201.58 209.67L201.68 210.33L201.77 211L201.87 211.67L201.97 212.34L202.07 213.01L202.18 213.68L202.28 214.35L202.39 215.02L202.5 215.7L202.61 216.38L202.73 217.05L202.84 217.73L203.08 219.09L203.2 219.78L203.32 220.46L203.45 221.15L203.57 221.83L203.83 223.21L203.96 223.9L204.24 225.28L204.37 225.98L204.52 226.67L204.8 228.07L204.95 228.76L205.1 229.46L205.4 230.86L205.56 231.57L205.71 232.27L205.87 232.98L206.04 233.68L207.42 233.34L210.22 232.66L211.62 232.33L213.04 232L214.46 231.68L215.88 231.36L217.31 231.05L220.19 230.43L221.64 230.13L223.09 229.84L224.55 229.54L226.02 229.26L227.49 228.97L228.97 228.69L230.45 228.42L231.94 228.15L233.43 227.88L234.93 227.62L236.43 227.36L237.94 227.11L239.46 226.86L242.5 226.38L244.03 226.14L245.56 225.91L247.1 225.68L250.2 225.24L251.75 225.03L253.31 224.82L254.87 224.62L256.44 224.42L258.01 224.23L259.59 224.04L261.17 223.85L262.76 223.67L264.35 223.49L265.94 223.32L266.88 222.02L267.83 220.72L268.77 219.43L269.72 218.14L270.67 216.87L271.62 215.59L272.58 214.33L273.53 213.07L275.45 210.57L276.41 209.33L277.38 208.1L278.34 206.88L279.31 205.66L280.28 204.44L283.19 200.84L284.17 199.66L285.14 198.48L287.1 196.14L288.08 194.98L290.04 192.68L291.02 191.54L292.01 190.41L292.99 189.28L293.98 188.17L294.96 187.05L296.94 184.85L297.92 183.76L299.9 181.6L300.89 180.53L301.88 179.47L302.86 178.41L303.85 177.36L304.84 176.32L302.54 174.22L300.25 172.16L297.97 170.16L295.69 168.2L293.43 166.29L291.17 164.44L288.93 162.63L286.69 160.87L284.47 159.16L282.27 157.5L280.07 155.89L277.9 154.34L275.73 152.83L273.59 151.38L271.45 149.97L269.34 148.62L267.25 147.32L265.17 146.08L263.11 144.88L261.08 143.74L259.06 142.65L257.07 141.62L255.1 140.64L253.15 139.71L251.23 138.84L249.33 138.02L247.45 137.26L245.61 136.55L243.79 135.9L241.99 135.3L240.23 134.76L238.49 134.27L236.78 133.84L235.11 133.47L233.46 133.15L231.85 132.89L230.26 132.69L228.72 132.54L227.2 132.46L225.72 132.43L225.72 132.52L225.4 132.52ZM317.72 193.21L315.72 195.35L314.72 196.44L313.71 197.53L312.71 198.63L310.71 200.87L309.7 202L308.7 203.13L307.7 204.28L305.7 206.6L304.7 207.77L303.71 208.96L302.71 210.15L301.72 211.35L300.72 212.55L299.73 213.77L298.74 215L297.75 216.23L296.77 217.47L295.78 218.72L294.8 219.98L293.82 221.25L294.81 221.2L295.8 221.14L296.8 221.1L297.79 221.05L298.79 221.01L299.78 220.97L300.78 220.93L301.78 220.89L302.79 220.86L304.79 220.8L306.81 220.74L309.84 220.68L310.85 220.66L311.86 220.65L312.88 220.63L313.89 220.62L314.91 220.61L315.93 220.6L316.95 220.6L317.96 220.59L322.03 220.59L323.03 220.6L324.04 220.61L325.05 220.62L326.05 220.63L327.06 220.65L328.06 220.66L329.07 220.68L330.07 220.7L331.07 220.73L332.07 220.75L333.06 220.78L335.06 220.84L336.05 220.87L338.03 220.93L340.01 221.01L341 221.04L341.98 221.08L342.97 221.12L343.95 221.16L344.93 221.21L345.91 221.25L344.91 219.98L343.91 218.72L342.91 217.47L341.9 216.23L340.9 215L339.9 213.77L338.89 212.55L337.89 211.35L336.88 210.15L335.87 208.96L334.87 207.77L333.86 206.6L332.85 205.44L331.84 204.28L330.84 203.13L328.82 200.87L326.8 198.63L325.79 197.53L324.78 196.44L323.77 195.35L321.75 193.21L320.73 192.16L319.72 191.11L318.72 192.16L317.72 193.21Z" id="e1O3a2DB0g"></path><path d="M413.82 111.14L413.82 132.05L412.43 132.08L410.91 132.17L409.36 132.31L407.77 132.52L406.15 132.78L404.5 133.1L402.82 133.47L401.11 133.9L399.37 134.39L397.61 134.94L395.81 135.54L393.99 136.2L392.14 136.91L390.27 137.68L388.37 138.5L386.45 139.38L384.5 140.31L382.53 141.3L380.54 142.34L378.52 143.43L376.49 144.58L374.43 145.78L372.36 147.04L370.27 148.35L368.16 149.71L366.03 151.12L363.88 152.58L361.72 154.1L359.55 155.66L357.36 157.28L355.15 158.95L352.93 160.67L350.7 162.44L348.46 164.26L346.21 166.13L343.94 168.05L341.67 170.02L339.39 172.04L337.09 174.11L334.8 176.23L335.79 177.27L336.79 178.32L337.78 179.37L338.78 180.44L339.77 181.51L340.76 182.59L341.76 183.67L344.73 186.97L346.71 189.21L348.69 191.47L349.68 192.62L350.66 193.77L351.65 194.92L352.63 196.08L353.62 197.25L355.58 199.61L356.56 200.8L357.54 202L358.52 203.2L359.49 204.41L360.47 205.63L361.44 206.85L362.42 208.08L363.39 209.32L364.36 210.56L365.33 211.81L366.3 213.06L367.26 214.32L368.23 215.59L369.19 216.86L370.15 218.14L371.11 219.43L372.07 220.72L373.02 222.02L373.98 223.32L375.57 223.49L377.15 223.67L378.73 223.85L380.3 224.04L381.88 224.23L383.44 224.42L385.01 224.62L386.57 224.82L388.12 225.03L389.67 225.24L391.21 225.46L392.76 225.68L395.82 226.14L397.35 226.37L398.87 226.61L400.39 226.85L403.41 227.35L404.91 227.61L406.41 227.87L407.9 228.13L409.38 228.4L410.87 228.67L412.34 228.95L415.28 229.51L416.74 229.8L418.19 230.1L419.64 230.39L421.08 230.7L422.52 231L423.95 231.31L425.37 231.62L426.79 231.94L428.2 232.26L429.61 232.59L431.01 232.92L432.4 233.25L433.79 233.59L433.95 232.87L434.1 232.16L434.4 230.74L434.55 230.03L434.7 229.32L434.84 228.61L434.99 227.9L435.13 227.2L435.27 226.49L435.41 225.79L435.55 225.08L435.68 224.38L435.82 223.68L436.08 222.28L436.21 221.58L436.33 220.89L436.46 220.19L436.58 219.49L436.7 218.8L436.94 217.42L437.05 216.73L437.17 216.04L437.28 215.35L437.38 214.67L437.49 213.98L437.6 213.3L437.7 212.62L437.8 211.94L437.9 211.26L437.99 210.59L438.08 209.91L438.18 209.24L438.26 208.57L438.35 207.9L438.43 207.23L438.52 206.56L438.59 205.9L438.9 203.21L439.17 200.56L439.4 197.94L439.6 195.35L439.76 192.8L439.89 190.29L439.97 187.81L440.03 185.37L440.05 182.97L440.03 180.61L439.98 178.29L439.89 176.02L439.78 173.78L439.62 171.6L439.44 169.46L439.22 167.37L438.96 165.33L438.68 163.33L438.36 161.39L438.01 159.51L437.62 157.67L437.21 155.89L436.76 154.17L436.28 152.5L435.77 150.89L435.23 149.35L434.66 147.86L434.06 146.43L433.43 145.07L432.77 143.77L432.07 142.54L431.35 141.38L430.6 140.28L429.83 139.25L429.02 138.29L428.18 137.4L427.32 136.59L426.43 135.85L425.51 135.18L424.56 134.59L424.34 134.47L424.12 134.36L423.89 134.25L423.67 134.13L423.44 134.03L423.21 133.92L422.97 133.82L422.74 133.72L422.5 133.63L422.26 133.53L422.02 133.44L421.77 133.36L421.52 133.27L421.27 133.19L421.02 133.11L420.77 133.04L420.25 132.9L419.99 132.83L419.45 132.71L419.18 132.65L418.91 132.6L418.63 132.54L418.35 132.5L418.07 132.45L417.79 132.41L417.5 132.37L417.21 132.33L416.92 132.3L416.32 132.24L415.72 132.2L415.41 132.18L415.1 132.17L414.78 132.16L414.47 132.15L414.15 132.15L413.82 132.14L413.82 132.05L413.92 132.05L413.92 111.14L414.41 111.14L414.99 111.15L415.57 111.17L416.15 111.19L417.29 111.25L417.86 111.3L418.43 111.34L418.99 111.4L419.56 111.46L420.11 111.53L420.67 111.6L421.22 111.68L422.32 111.86L422.86 111.96L423.4 112.07L424.48 112.31L425.01 112.43L425.54 112.57L426.06 112.71L427.1 113.01L427.62 113.17L428.64 113.51L429.14 113.7L429.64 113.88L430.14 114.08L430.64 114.28L431.13 114.49L431.61 114.71L432.1 114.93L432.58 115.16L433.05 115.4L433.53 115.64L433.99 115.89L434.46 116.15L434.92 116.41L436.87 117.62L438.75 118.94L440.55 120.39L442.27 121.94L443.92 123.62L445.49 125.4L446.98 127.29L448.4 129.3L449.74 131.4L451.01 133.62L452.2 135.93L453.31 138.35L454.34 140.87L455.31 143.48L456.19 146.19L457 148.99L457.73 151.88L458.39 154.86L458.97 157.93L459.48 161.08L459.91 164.32L460.27 167.64L460.55 171.04L460.76 174.52L460.89 178.07L460.95 181.7L460.93 185.4L460.84 189.17L460.67 193.01L460.43 196.92L460.12 200.89L459.73 204.93L459.26 209.02L458.73 213.18L458.11 217.39L457.43 221.66L456.67 225.98L455.84 230.35L454.93 234.77L453.95 239.24L458.32 240.61L462.61 242.02L466.82 243.47L470.95 244.96L475 246.48L478.96 248.05L482.83 249.65L486.62 251.28L490.31 252.95L493.92 254.65L497.43 256.39L500.84 258.15L504.16 259.95L507.38 261.78L510.5 263.63L513.52 265.52L516.44 267.43L519.25 269.36L521.95 271.33L524.54 273.31L527.03 275.32L529.4 277.36L531.66 279.41L533.8 281.49L535.83 283.59L537.74 285.7L539.53 287.84L541.19 289.99L542.73 292.16L544.15 294.34L545.44 296.54L546.6 298.75L547.63 300.98L548.53 303.22L549.3 305.47L549.93 307.73L550.42 310L550.77 312.27L550.99 314.56L551.06 316.85L550.99 319.14L550.78 321.42L550.42 323.69L549.93 325.95L549.31 328.21L548.54 330.45L547.65 332.69L546.62 334.91L545.47 337.12L544.19 339.31L542.78 341.49L541.24 343.66L539.59 345.8L537.81 347.94L535.91 350.05L533.89 352.14L531.76 354.22L529.52 356.27L527.16 358.3L524.69 360.31L522.11 362.3L519.42 364.26L516.62 366.19L513.73 368.1L510.72 369.99L507.62 371.84L504.42 373.67L501.12 375.46L497.72 377.23L494.23 378.96L490.65 380.66L486.98 382.33L483.22 383.97L479.36 385.57L475.43 387.13L471.41 388.66L467.3 390.14L463.12 391.59L458.85 393L454.51 394.37L455.5 398.83L456.41 403.24L457.25 407.6L458.02 411.9L458.71 416.16L459.33 420.36L459.88 424.5L460.35 428.58L460.75 432.61L461.07 436.57L461.32 440.46L461.49 444.29L461.59 448.06L461.61 451.75L461.56 455.37L461.44 458.91L461.24 462.38L460.96 465.77L460.61 469.09L460.19 472.32L459.69 475.46L459.11 478.53L458.46 481.5L457.73 484.39L456.93 487.18L456.05 489.89L455.1 492.49L454.07 495L452.97 497.42L451.78 499.73L450.53 501.94L449.19 504.05L447.78 506.05L446.3 507.94L444.73 509.72L443.09 511.39L441.38 512.95L439.58 514.39L437.71 515.71L435.77 516.92L435.3 517.18L434.83 517.44L434.35 517.69L433.88 517.93L433.39 518.17L432.91 518.4L431.93 518.84L431.43 519.05L430.93 519.25L430.43 519.45L429.92 519.63L429.42 519.82L428.9 519.99L428.39 520.16L427.87 520.32L427.35 520.47L426.82 520.62L426.29 520.76L425.76 520.9L425.23 521.02L424.69 521.14L424.15 521.26L423.6 521.37L423.05 521.47L422.5 521.56L421.95 521.65L421.39 521.73L420.83 521.8L420.27 521.87L419.71 521.93L419.14 521.99L418.56 522.03L417.99 522.08L416.83 522.14L416.25 522.16L415.66 522.18L415.07 522.19L414.48 522.19L412.52 522.16L410.54 522.05L408.52 521.89L406.48 521.65L404.41 521.34L402.31 520.97L400.19 520.54L398.04 520.04L395.87 519.47L393.67 518.84L391.45 518.14L389.21 517.38L386.95 516.56L384.67 515.68L382.37 514.73L380.04 513.72L377.7 512.65L375.34 511.52L372.97 510.33L370.58 509.08L368.17 507.76L365.75 506.39L363.31 504.96L360.86 503.47L358.39 501.93L355.92 500.32L353.43 498.66L350.93 496.95L348.43 495.17L345.91 493.34L343.38 491.46L340.85 489.52L338.31 487.52L335.76 485.48L333.21 483.38L330.65 481.22L328.09 479.01L325.52 476.75L322.95 474.44L320.38 472.08L317.81 474.46L315.24 476.78L312.68 479.06L310.12 481.28L307.56 483.45L305.01 485.56L302.46 487.62L299.92 489.63L297.39 491.58L294.86 493.48L292.34 495.32L289.83 497.11L287.34 498.84L284.85 500.51L282.37 502.13L279.91 503.69L277.46 505.19L275.02 506.63L272.6 508.01L270.19 509.33L267.8 510.6L265.42 511.8L263.07 512.94L260.72 514.02L258.4 515.04L256.1 515.99L253.82 516.89L251.55 517.72L249.31 518.48L247.1 519.18L244.9 519.82L242.73 520.39L240.58 520.9L238.46 521.34L236.36 521.71L234.29 522.02L232.25 522.26L230.23 522.43L228.24 522.53L226.29 522.57L225.69 522.57L225.11 522.56L224.52 522.54L223.94 522.52L223.36 522.49L222.2 522.41L221.63 522.36L221.06 522.31L220.5 522.25L219.94 522.18L219.38 522.11L218.82 522.02L218.27 521.94L217.72 521.84L217.17 521.74L216.63 521.64L216.09 521.52L215.55 521.4L215.02 521.27L214.49 521.14L213.96 521L212.92 520.7L212.4 520.54L211.89 520.37L211.38 520.19L210.88 520.01L210.37 519.82L209.87 519.63L209.38 519.43L208.89 519.22L208.4 519L207.92 518.78L207.44 518.55L206.96 518.31L206.49 518.07L206.02 517.82L205.55 517.56L205.09 517.29L203.14 516.09L201.26 514.76L199.46 513.32L197.74 511.76L196.09 510.09L194.52 508.31L193.03 506.41L191.61 504.41L190.27 502.3L189.01 500.09L187.82 497.77L186.71 495.36L185.67 492.84L184.71 490.23L183.82 487.52L183.01 484.72L182.28 481.83L181.62 478.85L181.04 475.78L180.53 472.62L180.1 469.39L179.74 466.07L179.46 462.67L179.25 459.19L179.12 455.63L179.07 452L179.08 448.3L179.17 444.53L179.34 440.69L179.58 436.79L179.9 432.81L180.29 428.78L180.75 424.69L181.29 420.53L181.9 416.32L182.59 412.05L183.35 407.73L184.18 403.36L185.09 398.94L186.07 394.47L181.7 393.1L177.41 391.69L173.19 390.24L169.06 388.75L165.02 387.22L161.06 385.66L157.18 384.06L153.4 382.43L149.7 380.76L146.1 379.06L142.59 377.32L139.17 375.56L135.85 373.76L132.63 371.93L129.51 370.08L126.49 368.19L123.58 366.28L120.77 364.34L118.06 362.38L115.47 360.39L112.99 358.38L110.61 356.35L108.35 354.29L106.21 352.22L104.18 350.12L102.28 348L100.49 345.87L98.82 343.72L97.28 341.55L95.86 339.37L94.57 337.17L93.41 334.95L92.38 332.73L91.48 330.49L90.72 328.24L90.09 325.98L89.59 323.71L89.24 321.43L89.03 319.15L88.95 316.85L89.03 314.57L89.24 312.29L89.59 310.02L90.08 307.76L90.71 305.5L91.47 303.26L92.36 301.03L93.39 298.81L94.55 296.6L95.83 294.41L97.24 292.23L98.78 290.07L100.44 287.92L102.21 285.79L104.11 283.68L106.13 281.59L108.27 279.52L110.52 277.47L112.88 275.44L115.35 273.43L117.94 271.45L120.63 269.49L123.43 267.55L126.33 265.64L129.34 263.76L132.44 261.91L135.65 260.08L138.96 258.29L142.36 256.52L145.86 254.78L149.45 253.08L153.13 251.41L156.9 249.77L160.77 248.17L164.71 246.61L168.74 245.08L172.86 243.58L177.06 242.13L181.33 240.71L185.69 239.33L184.7 234.88L183.79 230.47L182.95 226.11L182.18 221.8L181.49 217.55L180.87 213.35L180.32 209.21L179.85 205.12L179.46 201.1L179.13 197.14L178.89 193.24L178.71 189.41L178.61 185.65L178.59 181.96L178.64 178.34L178.77 174.8L178.97 171.33L179.24 167.93L179.59 164.62L180.02 161.39L180.52 158.24L181.09 155.18L181.74 152.21L182.47 149.32L183.27 146.52L184.15 143.82L185.1 141.21L186.13 138.7L187.24 136.29L188.42 133.98L189.68 131.77L191.01 129.66L192.42 127.66L193.91 125.77L195.47 123.99L197.11 122.32L198.83 120.76L200.62 119.32L202.49 118L204.43 116.79L204.9 116.53L205.37 116.27L206.33 115.77L206.81 115.54L207.29 115.31L207.78 115.08L208.28 114.87L208.77 114.66L209.27 114.46L209.77 114.26L210.28 114.07L210.79 113.89L211.3 113.72L211.82 113.55L212.33 113.39L212.86 113.23L213.38 113.09L214.44 112.81L214.98 112.68L215.51 112.56L216.06 112.45L216.6 112.34L217.15 112.24L217.7 112.15L218.25 112.06L218.81 111.98L219.37 111.9L219.93 111.84L221.07 111.72L221.64 111.67L222.21 111.63L223.95 111.54L224.54 111.53L225.13 111.52L225.72 111.52L225.72 111.42L227.68 111.46L229.67 111.56L231.68 111.73L233.72 111.97L235.8 112.27L237.89 112.64L240.01 113.08L242.16 113.58L244.33 114.14L246.53 114.77L248.75 115.47L250.99 116.23L253.25 117.05L255.53 117.94L257.84 118.88L260.16 119.89L262.5 120.96L264.86 122.09L267.23 123.29L269.63 124.54L272.03 125.85L274.46 127.22L276.89 128.65L279.34 130.14L281.81 131.69L284.28 133.29L286.77 134.95L289.27 136.67L291.78 138.44L294.29 140.27L296.82 142.16L299.35 144.09L301.89 146.09L304.44 148.14L306.99 150.24L309.55 152.39L312.11 154.6L314.68 156.86L317.25 159.17L319.82 161.53L322.39 159.16L324.96 156.83L327.52 154.56L330.09 152.34L332.64 150.17L335.2 148.05L337.74 145.99L340.28 143.98L342.82 142.03L345.34 140.13L347.86 138.29L350.37 136.5L352.87 134.77L355.35 133.1L357.83 131.48L360.29 129.93L362.74 128.43L365.18 126.98L367.6 125.6L370.01 124.28L372.4 123.02L374.78 121.81L377.14 120.67L379.48 119.59L381.8 118.57L384.1 117.62L386.39 116.73L388.65 115.9L390.89 115.13L393.11 114.43L395.3 113.79L397.47 113.22L399.62 112.71L401.75 112.27L403.84 111.9L405.91 111.59L407.96 111.35L409.97 111.18L411.96 111.08L413.92 111.04L413.92 111.14L413.82 111.14ZM205.92 401.54L205.76 402.26L205.61 402.97L205.46 403.68L205.32 404.39L205.17 405.09L205.03 405.8L204.88 406.51L204.74 407.21L204.6 407.92L204.47 408.62L204.33 409.32L204.2 410.03L204.07 410.73L203.94 411.43L203.81 412.12L203.68 412.82L203.56 413.52L203.43 414.21L203.31 414.91L203.19 415.6L203.08 416.29L202.96 416.98L202.85 417.67L202.74 418.35L202.63 419.04L202.52 419.72L202.42 420.41L202.22 421.77L202.12 422.44L202.02 423.12L201.93 423.8L201.84 424.47L201.75 425.14L201.66 425.81L201.58 426.48L201.5 427.15L201.42 427.81L201.11 430.49L200.84 433.15L200.61 435.77L200.41 438.35L200.25 440.9L200.13 443.42L200.04 445.9L199.99 448.34L199.97 450.74L199.98 453.1L200.03 455.42L200.12 457.69L200.24 459.92L200.39 462.11L200.58 464.25L200.8 466.34L201.05 468.38L201.34 470.37L201.66 472.31L202.01 474.2L202.39 476.04L202.81 477.81L203.25 479.54L203.73 481.2L204.24 482.81L204.78 484.36L205.35 485.85L205.95 487.27L206.59 488.64L207.25 489.93L207.94 491.17L208.66 492.33L209.41 493.43L210.19 494.46L211 495.42L211.83 496.3L212.7 497.12L213.59 497.86L214.51 498.52L215.45 499.11L215.67 499.23L215.88 499.35L216.32 499.57L216.55 499.68L216.78 499.78L217.01 499.89L217.24 499.98L217.47 500.08L217.95 500.26L218.2 500.35L218.44 500.44L218.69 500.52L218.95 500.6L219.2 500.67L219.46 500.75L219.72 500.82L219.98 500.89L220.25 500.95L220.51 501.01L220.78 501.07L221.06 501.13L221.33 501.18L221.61 501.23L221.89 501.28L222.18 501.33L222.46 501.37L222.75 501.41L223.04 501.45L223.34 501.48L223.63 501.51L223.93 501.54L224.23 501.56L224.54 501.59L224.85 501.61L225.15 501.62L225.47 501.64L225.78 501.65L226.1 501.66L227.58 501.63L229.1 501.54L230.66 501.39L232.24 501.19L233.86 500.93L235.51 500.61L237.19 500.24L238.9 499.8L240.64 499.31L242.41 498.77L244.2 498.17L246.02 497.51L247.87 496.8L249.75 496.03L251.65 495.21L253.57 494.33L255.52 493.39L257.48 492.41L259.48 491.37L261.49 490.27L263.52 489.12L265.58 487.92L267.65 486.67L269.75 485.36L271.86 484L273.98 482.59L276.13 481.13L278.29 479.61L280.47 478.04L282.66 476.42L284.86 474.76L287.08 473.04L289.31 471.27L291.55 469.44L293.81 467.57L296.07 465.65L298.34 463.68L300.63 461.67L302.92 459.6L305.22 457.48L304.22 456.44L303.23 455.39L302.23 454.33L301.24 453.27L300.24 452.2L299.25 451.12L298.26 450.03L297.26 448.94L296.27 447.84L294.29 445.62L293.3 444.5L292.31 443.37L291.32 442.23L290.34 441.09L289.35 439.94L288.37 438.79L287.38 437.62L286.4 436.45L285.41 435.28L284.43 434.09L282.47 431.71L281.5 430.5L279.54 428.08L278.57 426.86L277.6 425.63L276.62 424.39L275.65 423.15L274.69 421.9L273.72 420.65L272.75 419.39L271.79 418.12L270.82 416.84L269.86 415.57L268.9 414.28L267.95 412.99L266.03 410.39L264.45 410.21L262.86 410.04L261.28 409.86L259.71 409.67L258.14 409.48L256.57 409.29L255.01 409.09L253.45 408.88L251.89 408.68L250.34 408.46L248.8 408.25L247.26 408.03L245.72 407.8L242.66 407.34L241.14 407.1L239.63 406.85L238.11 406.61L236.61 406.36L235.1 406.1L233.61 405.84L232.12 405.58L230.63 405.31L229.15 405.03L227.67 404.76L226.2 404.48L221.82 403.61L220.38 403.31L218.93 403.01L217.5 402.71L216.07 402.4L214.64 402.08L213.22 401.77L211.81 401.44L210.41 401.12L209 400.79L207.61 400.46L206.22 400.12L206.07 400.83L205.92 401.54ZM431.2 400.61L429.8 400.95L428.39 401.28L426.98 401.61L425.56 401.93L424.13 402.25L421.27 402.87L419.82 403.18L416.92 403.78L414 404.36L412.52 404.64L411.05 404.92L409.56 405.2L408.08 405.47L406.58 405.73L405.09 405.99L403.58 406.25L400.56 406.75L399.04 407L397.51 407.24L395.98 407.47L394.45 407.7L392.91 407.93L391.37 408.15L389.82 408.37L386.7 408.79L385.14 408.99L382 409.39L380.42 409.58L378.84 409.76L377.26 409.94L375.67 410.12L374.07 410.29L373.13 411.6L372.19 412.89L371.24 414.18L370.3 415.47L369.35 416.75L368.39 418.02L367.44 419.28L366.48 420.54L365.52 421.79L364.56 423.04L363.6 424.28L362.64 425.51L361.67 426.74L360.7 427.96L359.74 429.17L358.77 430.38L357.79 431.58L356.82 432.77L355.85 433.95L354.87 435.13L353.89 436.31L352.91 437.47L351.93 438.63L350.95 439.79L348.99 442.07L348.01 443.2L347.02 444.33L346.04 445.45L345.05 446.56L344.07 447.66L343.08 448.76L341.1 450.94L340.12 452.01L339.13 453.08L338.14 454.15L336.16 456.25L335.17 457.29L337.47 459.4L339.76 461.45L342.05 463.45L344.32 465.41L346.59 467.32L348.84 469.18L351.09 470.99L353.32 472.74L355.54 474.45L357.75 476.11L359.94 477.72L362.12 479.28L364.28 480.78L366.43 482.24L368.56 483.64L370.67 484.99L372.77 486.29L374.84 487.54L376.9 488.73L378.94 489.87L380.95 490.96L382.94 491.99L384.91 492.97L386.86 493.9L388.79 494.77L390.69 495.59L392.56 496.36L394.41 497.06L396.23 497.72L398.02 498.31L399.79 498.86L401.52 499.34L403.23 499.77L404.91 500.15L406.55 500.46L408.17 500.72L409.75 500.93L411.3 501.07L412.81 501.16L414.29 501.19L414.62 501.18L414.94 501.18L415.26 501.17L415.57 501.16L415.89 501.15L416.2 501.13L416.51 501.12L416.81 501.09L417.11 501.07L417.42 501.04L417.71 501.01L418.01 500.98L418.59 500.9L418.88 500.86L419.16 500.81L419.45 500.76L419.72 500.71L420 500.66L420.27 500.6L420.54 500.54L421.08 500.4L421.6 500.26L421.85 500.18L422.11 500.1L422.36 500.01L422.6 499.93L422.85 499.84L423.33 499.64L423.56 499.54L423.8 499.44L424.03 499.33L424.25 499.22L424.91 498.86L425.12 498.74L426.06 498.14L426.98 497.47L427.86 496.72L428.72 495.9L429.55 495.01L430.35 494.05L431.12 493.01L431.86 491.91L432.58 490.74L433.26 489.5L433.91 488.2L434.54 486.83L435.13 485.41L435.7 483.92L436.23 482.36L436.73 480.75L437.2 479.08L437.64 477.36L438.05 475.58L438.43 473.74L438.77 471.85L439.09 469.91L439.36 467.92L439.61 465.87L439.82 463.78L440 461.64L440.15 459.45L440.26 457.22L440.34 454.95L440.38 452.63L440.39 450.27L440.37 447.87L440.31 445.43L440.21 442.95L440.08 440.43L439.91 437.88L439.71 435.3L439.47 432.68L439.19 430.02L438.88 427.34L438.8 426.68L438.72 426.02L438.63 425.36L438.55 424.7L438.46 424.04L438.37 423.37L438.27 422.71L438.18 422.04L438.08 421.37L437.98 420.7L437.88 420.03L437.77 419.35L437.66 418.68L437.55 418L437.44 417.33L437.33 416.65L437.21 415.97L437.09 415.29L436.97 414.6L436.85 413.92L436.73 413.23L436.6 412.54L436.47 411.86L436.34 411.17L436.21 410.47L436.07 409.78L435.94 409.09L435.66 407.69L435.51 406.99L435.37 406.29L434.92 404.19L434.77 403.48L434.61 402.77L434.46 402.06L434.3 401.35L434.14 400.64L433.98 399.93L432.59 400.27L431.2 400.61ZM343.12 412.61L342.13 412.66L341.13 412.7L340.13 412.74L339.14 412.78L338.14 412.82L337.13 412.85L336.13 412.88L335.12 412.91L334.12 412.94L333.11 412.96L332.1 412.99L330.08 413.03L329.07 413.05L328.06 413.06L327.04 413.07L326.03 413.09L325.01 413.1L323.99 413.1L322.97 413.11L321.95 413.11L320.93 413.12L318.9 413.12L317.89 413.11L316.88 413.11L315.88 413.1L314.87 413.09L313.86 413.07L312.86 413.06L311.86 413.04L310.85 413.02L307.85 412.96L306.86 412.93L304.86 412.87L303.87 412.84L302.88 412.81L301.89 412.77L300.9 412.74L299.91 412.7L298.92 412.66L297.94 412.62L296.95 412.58L294.99 412.5L294.01 412.46L295.01 413.73L297.01 416.23L298.02 417.48L300.02 419.94L301.03 421.15L302.03 422.36L303.04 423.56L304.05 424.75L305.05 425.93L306.06 427.11L308.08 429.43L309.08 430.57L310.09 431.71L311.1 432.84L312.11 433.96L313.12 435.07L315.14 437.27L317.16 439.43L318.17 440.49L319.18 441.55L320.2 442.6L321.2 441.55L323.2 439.43L325.2 437.27L326.2 436.17L327.21 435.07L328.21 433.96L329.21 432.84L330.21 431.71L331.22 430.57L332.22 429.43L334.22 427.11L335.22 425.93L336.21 424.75L337.21 423.56L338.2 422.36L339.2 421.15L340.19 419.94L341.18 418.71L342.17 417.48L343.15 416.23L344.14 414.98L345.12 413.73L346.1 412.46L344.12 412.56L343.12 412.61ZM316.79 241.7L315.71 241.71L313.57 241.73L312.5 241.75L310.36 241.79L309.29 241.81L308.22 241.84L307.15 241.86L306.08 241.89L305.01 241.93L303.94 241.96L302.88 242L300.74 242.08L299.68 242.12L298.61 242.17L297.55 242.22L296.48 242.27L295.42 242.32L293.3 242.44L292.23 242.5L291.17 242.56L290.11 242.63L289.05 242.69L286.93 242.83L285.87 242.91L284.82 242.98L282.7 243.14L281.65 243.22L280.59 243.31L279.54 243.39L278.49 243.48L277.43 243.57L276.85 244.41L276.26 245.26L275.1 246.96L274.51 247.81L273.35 249.53L272.77 250.4L272.2 251.26L271.62 252.13L271.04 253.01L270.47 253.88L269.9 254.76L269.32 255.64L267.61 258.31L267.04 259.2L266.47 260.1L265.91 261L265.34 261.9L264.77 262.8L264.21 263.71L263.64 264.62L263.08 265.54L262.52 266.45L261.4 268.29L260.84 269.22L260.28 270.14L259.16 272L258.61 272.94L258.05 273.88L257.5 274.82L256.94 275.76L256.39 276.7L255.84 277.65L255.28 278.6L254.73 279.55L254.2 280.48L253.68 281.41L253.15 282.33L252.63 283.26L252.11 284.19L251.59 285.12L251.07 286.06L250.55 286.99L250.04 287.92L249.53 288.86L249.02 289.79L248.51 290.73L248 291.66L247.5 292.6L246 295.42L245.51 296.36L245.01 297.3L244.52 298.24L244.04 299.18L243.55 300.12L243.07 301.07L242.59 302.01L242.11 302.95L241.63 303.9L240.69 305.78L240.22 306.73L239.75 307.67L239.29 308.62L238.83 309.57L238.37 310.51L237.91 311.46L237.46 312.4L236.56 314.3L236.12 315.24L235.67 316.19L235.23 317.14L235.68 318.08L236.13 319.03L236.58 319.97L237.03 320.92L237.49 321.86L237.94 322.81L238.4 323.75L238.86 324.7L239.33 325.64L239.79 326.58L240.26 327.53L241.2 329.41L241.68 330.35L242.15 331.29L243.11 333.17L243.6 334.11L244.08 335.05L244.57 335.99L245.06 336.92L245.55 337.86L246.05 338.8L246.55 339.73L247.05 340.67L247.55 341.6L248.05 342.54L248.56 343.47L249.07 344.4L249.58 345.34L250.09 346.27L250.61 347.2L251.13 348.13L252.17 349.99L252.7 350.92L253.23 351.84L254.29 353.7L254.83 354.62L255.38 355.57L256.48 357.45L257.04 358.39L257.59 359.33L259.27 362.12L259.83 363.04L260.39 363.97L260.95 364.89L261.51 365.8L262.08 366.72L262.64 367.63L263.21 368.54L263.77 369.45L264.91 371.25L265.48 372.15L266.05 373.05L266.62 373.94L267.19 374.84L267.76 375.72L268.34 376.61L268.91 377.49L269.49 378.37L270.06 379.25L270.64 380.13L271.22 381L271.79 381.87L272.37 382.74L273.53 384.46L274.12 385.32L274.7 386.18L275.28 387.03L275.86 387.88L276.45 388.73L277.03 389.57L277.62 390.42L278.67 390.5L279.71 390.58L280.76 390.66L282.86 390.82L283.91 390.89L284.96 390.97L286.02 391.04L287.07 391.11L288.12 391.17L289.18 391.24L290.24 391.3L291.29 391.36L294.47 391.54L298.71 391.74L299.77 391.78L300.83 391.82L301.89 391.86L302.96 391.9L304.02 391.94L305.08 391.97L306.15 392L307.21 392.03L308.28 392.06L309.34 392.09L311.48 392.13L312.54 392.15L313.61 392.16L314.67 392.18L316.81 392.2L317.87 392.2L318.94 392.21L321.08 392.21L322.15 392.2L323.23 392.2L325.37 392.18L326.44 392.16L327.51 392.15L328.58 392.13L329.66 392.11L330.73 392.08L331.8 392.06L332.86 392.03L333.93 392L335 391.97L336.07 391.93L337.14 391.9L338.2 391.86L339.27 391.81L340.33 391.77L341.4 391.72L342.46 391.68L343.53 391.62L344.59 391.57L345.66 391.51L346.72 391.46L347.78 391.4L348.84 391.33L349.9 391.27L354.14 390.99L355.2 390.91L356.25 390.84L357.31 390.76L358.37 390.67L359.42 390.59L360.47 390.5L361.53 390.41L362.58 390.32L363.17 389.48L363.75 388.64L364.34 387.79L364.92 386.93L365.5 386.08L366.08 385.22L367.24 383.5L367.82 382.63L368.39 381.76L368.97 380.89L369.54 380.01L370.12 379.13L371.26 377.37L372.4 375.59L372.97 374.69L373.54 373.8L374.11 372.9L374.67 372L375.24 371.09L375.8 370.18L376.37 369.27L376.93 368.36L377.49 367.44L378.06 366.52L378.62 365.6L379.18 364.68L379.73 363.75L381.41 360.96L381.96 360.02L382.52 359.08L383.07 358.14L383.63 357.19L384.18 356.24L385.28 354.34L385.81 353.42L386.34 352.49L386.86 351.56L387.9 349.7L388.42 348.77L388.94 347.84L389.45 346.91L389.96 345.97L390.47 345.04L390.98 344.1L391.49 343.17L392.49 341.29L392.99 340.36L393.49 339.42L393.98 338.48L394.48 337.54L394.97 336.6L395.45 335.66L395.94 334.71L396.42 333.77L396.91 332.83L397.39 331.89L397.86 330.94L398.34 330L398.81 329.06L399.29 328.11L399.76 327.17L400.22 326.22L400.69 325.28L401.61 323.38L402.07 322.44L402.53 321.49L402.98 320.55L403.88 318.65L404.33 317.71L404.78 316.76L404.33 315.81L403.88 314.87L403.43 313.92L402.98 312.98L402.53 312.03L402.07 311.09L401.61 310.14L401.15 309.2L400.69 308.25L398.34 303.55L397.86 302.6L396.9 300.72L396.42 299.79L394.46 296.03L393.96 295.1L393.47 294.16L392.97 293.23L392.47 292.29L391.96 291.36L391.45 290.42L390.95 289.49L390.43 288.56L389.92 287.63L389.4 286.7L388.89 285.77L388.36 284.84L387.32 282.98L386.79 282.05L386.26 281.12L385.72 280.2L385.19 279.27L384.64 278.33L384.08 277.38L383.53 276.44L382.97 275.5L382.42 274.57L381.3 272.71L380.75 271.78L380.19 270.85L379.63 269.93L379.06 269.01L378.5 268.09L377.94 267.18L377.37 266.26L376.81 265.35L376.24 264.45L375.67 263.54L375.11 262.64L374.54 261.74L373.97 260.84L373.4 259.95L372.82 259.06L371.68 257.28L371.1 256.4L370.53 255.52L369.95 254.64L369.38 253.77L368.8 252.89L368.22 252.02L367.64 251.16L367.06 250.29L366.48 249.43L365.9 248.57L365.32 247.72L364.73 246.86L364.15 246.01L363.56 245.16L362.98 244.32L362.39 243.48L361.35 243.39L359.25 243.23L358.2 243.15L357.15 243.08L356.1 243L354 242.86L352.94 242.79L351.89 242.72L350.83 242.66L349.78 242.59L348.72 242.53L347.66 242.47L346.61 242.42L345.55 242.36L342.37 242.21L341.31 242.16L340.24 242.11L339.18 242.07L338.12 242.03L337.06 241.99L335.99 241.96L334.93 241.92L333.86 241.89L332.8 241.86L331.73 241.83L330.67 241.81L329.6 241.79L328.54 241.77L327.47 241.75L326.41 241.73L324.27 241.71L323.21 241.7L322.14 241.69L317.86 241.69L316.79 241.7ZM223.09 345.36L222.54 346.81L221.99 348.25L221.45 349.7L220.39 352.58L219.86 354.03L219.34 355.47L218.83 356.91L218.32 358.35L217.82 359.78L217.33 361.22L216.84 362.65L216.35 364.08L215.41 366.94L214.95 368.37L214.49 369.79L214.04 371.21L213.6 372.63L213.17 374.05L212.74 375.46L211.9 378.28L211.5 379.68L212.92 380.02L214.36 380.37L215.79 380.7L217.23 381.03L218.68 381.36L220.13 381.68L221.58 381.99L223.05 382.3L224.51 382.61L225.98 382.91L227.46 383.21L228.93 383.5L230.42 383.79L231.91 384.07L233.4 384.35L236.4 384.89L237.91 385.16L239.42 385.42L240.93 385.67L242.45 385.93L243.98 386.17L245.51 386.42L247.04 386.66L248.58 386.89L250.12 387.12L249.58 386.29L249.05 385.47L248.52 384.63L247.99 383.8L247.46 382.97L246.94 382.13L246.41 381.3L245.88 380.46L245.36 379.62L244.83 378.78L244.31 377.93L243.79 377.09L243.26 376.24L242.22 374.54L241.7 373.69L241.18 372.84L240.67 371.98L240.15 371.12L239.63 370.27L239.12 369.41L238.6 368.54L238.09 367.68L237.58 366.82L237.06 365.95L236.55 365.08L236.04 364.21L235.54 363.34L235.03 362.47L234.54 361.6L234.04 360.73L233.55 359.86L232.57 358.12L232.08 357.25L231.6 356.39L231.12 355.52L230.65 354.65L230.17 353.78L228.76 351.17L228.3 350.3L227.38 348.56L226.92 347.69L226.46 346.82L225.56 345.08L225.11 344.21L224.21 342.47L223.65 343.92L223.09 345.36ZM414.36 344.71L413.91 345.58L413.46 346.45L413 347.33L412.54 348.2L412.08 349.07L411.62 349.95L411.16 350.82L410.7 351.7L410.23 352.57L409.76 353.45L409.29 354.32L408.82 355.2L408.34 356.07L407.86 356.95L406.9 358.69L406.42 359.57L405.93 360.44L405.44 361.31L404.95 362.18L404.46 363.06L403.46 364.8L402.96 365.68L402.46 366.55L401.95 367.43L401.44 368.3L400.93 369.18L400.42 370.05L399.9 370.92L399.39 371.79L398.87 372.65L398.35 373.52L397.83 374.38L397.31 375.24L396.78 376.1L396.26 376.96L395.73 377.81L395.21 378.67L393.09 382.07L392.56 382.91L392.03 383.76L391.49 384.6L389.9 387.12L391.45 386.89L393 386.65L394.54 386.41L396.08 386.17L397.61 385.92L399.14 385.66L400.67 385.4L402.19 385.14L403.71 384.87L405.22 384.59L406.73 384.31L408.23 384.03L409.72 383.74L411.22 383.45L414.18 382.85L415.66 382.54L417.13 382.23L418.6 381.91L420.06 381.6L424.41 380.61L425.84 380.27L427.28 379.93L428.7 379.58L428.29 378.17L427 373.91L426.56 372.48L426.11 371.05L425.65 369.62L425.19 368.19L424.72 366.75L424.24 365.31L423.76 363.87L423.27 362.43L422.77 360.98L422.27 359.54L421.76 358.09L421.24 356.64L420.72 355.19L420.19 353.74L419.65 352.28L419.11 350.83L418.56 349.38L417.44 346.46L416.87 345.01L416.29 343.55L415.71 342.1L415.26 342.97L414.36 344.71ZM189.5 260.12L188.82 260.34L187.46 260.78L186.78 261.01L186.1 261.23L185.43 261.45L184.75 261.68L184.08 261.91L183.41 262.13L181.4 262.82L180.74 263.05L180.07 263.28L179.41 263.52L178.75 263.75L178.09 263.99L177.44 264.22L176.78 264.46L175.48 264.94L174.83 265.18L174.18 265.42L173.54 265.66L172.9 265.91L172.26 266.15L171.62 266.4L170.99 266.65L170.36 266.89L169.73 267.14L169.1 267.4L168.47 267.65L167.85 267.9L167.23 268.16L166.61 268.41L166 268.67L165.39 268.93L164.78 269.19L162.3 270.26L159.87 271.34L157.48 272.45L155.14 273.56L152.85 274.69L150.6 275.83L148.41 276.99L146.26 278.15L144.17 279.33L142.13 280.52L140.15 281.72L138.21 282.92L136.34 284.14L134.51 285.36L132.75 286.58L131.04 287.81L129.4 289.05L127.81 290.29L126.28 291.53L124.82 292.78L123.42 294.02L122.08 295.27L120.8 296.51L119.59 297.76L118.45 299L117.37 300.24L116.36 301.48L115.42 302.71L114.56 303.93L113.76 305.15L113.03 306.37L112.38 307.57L111.79 308.77L111.29 309.96L110.86 311.14L110.5 312.31L110.23 313.46L110.03 314.61L109.91 315.74L109.87 316.85L109.91 317.97L110.03 319.1L110.23 320.24L110.5 321.4L110.86 322.56L111.29 323.74L111.79 324.93L112.38 326.12L113.03 327.33L113.76 328.54L114.56 329.76L115.42 330.98L116.36 332.21L117.37 333.44L118.45 334.68L119.59 335.92L120.8 337.16L122.08 338.41L123.42 339.65L124.82 340.9L126.28 342.14L127.81 343.38L129.4 344.62L131.04 345.85L132.75 347.08L134.51 348.31L136.34 349.53L138.21 350.74L140.15 351.95L142.13 353.15L144.17 354.34L146.26 355.52L148.41 356.68L150.6 357.84L152.85 358.99L155.14 360.12L157.48 361.24L159.87 362.35L162.3 363.44L164.78 364.51L165.39 364.78L166.01 365.03L166.63 365.29L167.26 365.55L167.88 365.81L168.51 366.06L169.14 366.32L169.77 366.57L170.41 366.82L171.05 367.08L171.69 367.33L172.33 367.57L172.97 367.82L174.27 368.32L174.92 368.56L175.57 368.8L176.22 369.05L177.54 369.53L178.2 369.77L178.87 370.01L179.53 370.25L180.2 370.48L180.87 370.72L181.54 370.95L182.22 371.19L182.89 371.42L183.57 371.65L184.93 372.11L185.62 372.34L186.3 372.56L186.99 372.79L187.68 373.01L188.37 373.24L189.06 373.46L189.76 373.68L190.45 373.9L191.15 374.12L191.55 372.74L191.96 371.36L192.37 369.98L193.21 367.2L193.64 365.81L194.52 363.01L194.97 361.61L195.43 360.21L195.89 358.8L196.83 355.98L197.31 354.57L197.8 353.16L198.8 350.32L199.3 348.89L199.82 347.47L200.86 344.61L201.39 343.18L201.93 341.74L202.48 340.31L203.03 338.87L203.59 337.43L204.15 335.98L204.72 334.54L205.3 333.09L205.88 331.64L206.47 330.19L207.07 328.74L207.67 327.28L208.28 325.82L208.89 324.37L209.51 322.9L210.14 321.44L210.78 319.98L211.42 318.51L212.06 317.04L211.41 315.57L210.76 314.09L210.12 312.62L209.49 311.15L208.86 309.68L208.24 308.22L207.62 306.75L207.01 305.29L205.81 302.37L205.22 300.91L204.64 299.46L204.06 298.01L203.49 296.56L202.92 295.11L202.37 293.66L201.81 292.22L200.73 289.34L200.2 287.9L199.67 286.47L199.15 285.03L198.63 283.6L198.13 282.18L197.63 280.75L197.13 279.33L196.64 277.91L195.68 275.07L195.21 273.66L194.29 270.84L193.84 269.44L192.96 266.64L192.53 265.24L192.11 263.84L191.69 262.45L191.28 261.06L190.87 259.68L190.19 259.9L189.5 260.12ZM447.96 262.35L447.55 263.73L447.13 265.12L446.71 266.51L446.28 267.9L445.84 269.3L445.4 270.69L444.95 272.09L444.49 273.5L444.03 274.9L443.09 277.72L442.6 279.14L442.12 280.55L441.62 281.97L441.12 283.39L440.62 284.81L440.1 286.24L439.58 287.67L439.06 289.1L438.52 290.53L437.99 291.96L437.44 293.4L436.89 294.84L435.77 297.72L435.2 299.17L434.62 300.61L434.04 302.06L433.45 303.52L432.85 304.97L432.25 306.42L431.03 309.34L430.4 310.8L429.78 312.26L427.86 316.67L429.16 319.61L429.8 321.09L430.43 322.56L431.06 324.02L431.68 325.49L432.3 326.96L432.91 328.42L433.51 329.88L434.11 331.34L434.7 332.79L435.28 334.25L435.86 335.7L437 338.6L437.55 340.04L438.11 341.49L439.19 344.37L439.72 345.81L440.25 347.24L440.77 348.67L441.28 350.1L441.79 351.53L442.29 352.96L442.79 354.38L443.28 355.8L443.76 357.22L444.23 358.63L444.7 360.04L445.17 361.45L446.07 364.27L446.52 365.67L446.96 367.07L447.39 368.47L447.81 369.86L448.23 371.25L448.64 372.64L449.05 374.03L449.73 373.81L450.42 373.59L451.78 373.15L452.46 372.92L453.82 372.48L454.49 372.25L455.17 372.03L458.52 370.88L459.18 370.65L459.85 370.42L460.51 370.19L461.17 369.95L461.83 369.72L462.48 369.48L463.14 369.25L463.79 369.01L464.44 368.77L465.09 368.53L465.73 368.29L466.38 368.04L467.02 367.8L467.66 367.55L468.3 367.31L471.45 366.06L472.07 365.8L472.69 365.55L473.31 365.29L473.92 365.03L475.14 364.51L477.62 363.45L480.05 362.36L482.44 361.26L484.78 360.15L487.07 359.02L489.32 357.87L491.51 356.72L493.66 355.55L495.75 354.37L497.79 353.19L499.78 351.99L501.71 350.78L503.59 349.57L505.41 348.35L507.17 347.12L508.88 345.89L510.53 344.66L512.12 343.42L513.65 342.18L515.11 340.93L516.52 339.69L517.86 338.44L519.14 337.19L520.35 335.95L521.49 334.71L522.57 333.47L523.58 332.23L524.53 331L525.4 329.77L526.2 328.55L526.93 327.34L527.59 326.13L528.18 324.93L528.69 323.75L529.13 322.57L529.49 321.4L529.77 320.24L529.97 319.1L530.1 317.97L530.15 316.85L530.11 315.74L529.99 314.61L529.79 313.46L529.51 312.31L529.16 311.14L528.73 309.97L528.22 308.78L527.64 307.58L526.98 306.38L526.26 305.17L525.46 303.95L524.59 302.73L523.65 301.5L522.64 300.26L521.56 299.02L520.42 297.78L519.21 296.54L517.94 295.3L516.6 294.05L515.2 292.81L513.73 291.57L512.2 290.33L510.62 289.09L508.97 287.85L507.26 286.62L505.5 285.4L503.68 284.18L501.8 282.96L499.87 281.76L497.88 280.56L495.84 279.37L493.75 278.19L491.61 277.02L489.41 275.86L487.17 274.72L484.87 273.58L482.53 272.46L480.15 271.36L477.71 270.27L475.23 269.19L473.99 268.67L473.36 268.41L472.73 268.16L471.47 267.64L470.19 267.14L469.55 266.88L468.91 266.63L468.27 266.38L467.62 266.13L466.98 265.88L466.33 265.64L465.68 265.39L465.02 265.15L464.37 264.9L461.73 263.94L459.72 263.22L459.05 262.99L458.38 262.75L457.71 262.52L455.67 261.83L454.99 261.6L454.3 261.37L453.62 261.14L452.93 260.92L452.24 260.69L451.55 260.47L450.86 260.25L450.16 260.03L449.47 259.8L448.77 259.58L448.37 260.96L447.96 262.35ZM245.38 247.29L243.84 247.54L242.31 247.79L240.77 248.04L239.25 248.3L236.21 248.84L234.7 249.11L233.19 249.39L230.19 249.95L228.7 250.24L227.22 250.54L225.73 250.84L222.79 251.44L221.32 251.75L219.86 252.07L218.41 252.39L216.96 252.71L215.51 253.03L214.07 253.36L212.64 253.69L211.22 254.03L211.63 255.44L212.05 256.86L212.48 258.28L212.92 259.7L213.36 261.13L213.81 262.56L214.27 263.99L214.73 265.43L215.2 266.86L215.68 268.3L216.16 269.74L216.65 271.19L217.15 272.63L217.65 274.08L218.16 275.52L218.68 276.97L219.2 278.42L219.73 279.88L220.81 282.78L221.36 284.24L221.92 285.69L222.48 287.15L223.05 288.6L223.63 290.06L224.21 291.52L224.66 290.65L225.11 289.78L226.01 288.04L226.46 287.17L226.92 286.3L227.38 285.43L227.83 284.56L228.3 283.69L228.76 282.82L229.22 281.95L230.63 279.34L231.1 278.47L232.06 276.73L232.54 275.87L233.5 274.13L235.46 270.65L235.96 269.78L236.46 268.91L237.46 267.15L237.97 266.28L238.48 265.4L238.99 264.53L240.01 262.79L241.05 261.05L241.57 260.19L242.09 259.33L242.61 258.47L243.13 257.61L244.19 255.89L244.71 255.04L245.24 254.19L245.77 253.33L246.3 252.49L246.83 251.64L247.36 250.79L247.89 249.95L248.43 249.1L248.96 248.26L249.49 247.42L250.02 246.59L246.92 247.05L245.38 247.29ZM390.87 248.24L391.4 249.07L391.93 249.9L392.46 250.74L392.99 251.57L393.52 252.41L394.05 253.25L394.58 254.09L395.11 254.93L395.64 255.77L396.17 256.62L396.69 257.47L397.21 258.31L397.74 259.16L398.26 260.02L398.78 260.87L399.29 261.72L399.81 262.58L400.32 263.44L400.84 264.3L401.35 265.16L401.86 266.03L402.36 266.89L402.87 267.76L403.37 268.63L403.88 269.5L404.88 271.24L405.38 272.1L405.88 272.97L407.35 275.58L407.84 276.45L408.8 278.19L409.27 279.06L409.75 279.93L410.69 281.67L411.15 282.54L411.62 283.41L413.46 286.89L413.91 287.76L414.36 288.62L415.71 291.23L416.27 289.79L416.83 288.34L417.38 286.9L417.92 285.45L418.47 284.01L419 282.56L420.06 279.68L420.58 278.24L421.09 276.8L421.6 275.36L422.1 273.92L423.08 271.06L423.56 269.62L424.04 268.19L424.51 266.77L424.97 265.34L425.43 263.92L425.88 262.5L426.32 261.08L426.75 259.66L427.18 258.25L427.6 256.84L428.02 255.43L428.42 254.03L426.99 253.68L425.56 253.34L424.13 253.01L422.69 252.68L421.24 252.35L419.79 252.03L418.33 251.71L416.87 251.4L415.41 251.1L413.94 250.8L412.46 250.5L410.98 250.21L409.5 249.92L406.52 249.36L405.02 249.08L403.52 248.81L402.01 248.55L398.99 248.03L397.47 247.78L395.94 247.53L392.88 247.05L389.8 246.59L390.34 247.41L390.87 248.24ZM225.4 132.52L225.08 132.53L224.76 132.53L224.44 132.54L224.13 132.56L223.82 132.57L223.51 132.59L223.2 132.61L222.9 132.64L222.6 132.66L222.3 132.7L222 132.73L221.71 132.77L221.42 132.81L221.14 132.85L220.85 132.89L220.57 132.94L220.29 133L220.01 133.05L219.47 133.17L219.2 133.24L218.94 133.3L218.68 133.38L218.42 133.45L218.16 133.53L217.91 133.61L217.66 133.69L217.16 133.87L216.92 133.97L216.69 134.06L216.45 134.16L216.22 134.27L215.99 134.38L215.76 134.49L215.54 134.6L215.1 134.84L214.89 134.97L213.95 135.57L213.04 136.24L212.15 136.98L211.29 137.81L210.47 138.7L209.67 139.66L208.89 140.7L208.15 141.8L207.44 142.97L206.75 144.2L206.1 145.51L205.47 146.87L204.88 148.3L204.32 149.79L203.78 151.34L203.28 152.95L202.81 154.62L202.37 156.35L201.96 158.13L201.58 159.97L201.24 161.86L200.93 163.8L200.65 165.79L200.4 167.83L200.19 169.93L200.01 172.07L199.86 174.25L199.75 176.48L199.67 178.76L199.63 181.08L199.62 183.44L199.65 185.84L199.71 188.28L199.8 190.76L199.94 193.27L200.1 195.83L200.31 198.41L200.55 201.03L200.82 203.68L201.14 206.37L201.22 207.02L201.31 207.68L201.4 208.34L201.49 209.01L201.58 209.67L201.68 210.33L201.77 211L201.87 211.67L201.97 212.34L202.07 213.01L202.18 213.68L202.28 214.35L202.39 215.02L202.5 215.7L202.61 216.38L202.73 217.05L202.84 217.73L203.08 219.09L203.2 219.78L203.32 220.46L203.45 221.15L203.57 221.83L203.83 223.21L203.96 223.9L204.24 225.28L204.37 225.98L204.52 226.67L204.8 228.07L204.95 228.76L205.1 229.46L205.4 230.86L205.56 231.57L205.71 232.27L205.87 232.98L206.04 233.68L207.42 233.34L210.22 232.66L211.62 232.33L213.04 232L214.46 231.68L215.88 231.36L217.31 231.05L220.19 230.43L221.64 230.13L223.09 229.84L224.55 229.54L226.02 229.26L227.49 228.97L228.97 228.69L230.45 228.42L231.94 228.15L233.43 227.88L234.93 227.62L236.43 227.36L237.94 227.11L239.46 226.86L242.5 226.38L244.03 226.14L245.56 225.91L247.1 225.68L250.2 225.24L251.75 225.03L253.31 224.82L254.87 224.62L256.44 224.42L258.01 224.23L259.59 224.04L261.17 223.85L262.76 223.67L264.35 223.49L265.94 223.32L266.88 222.02L267.83 220.72L268.77 219.43L269.72 218.14L270.67 216.87L271.62 215.59L272.58 214.33L273.53 213.07L275.45 210.57L276.41 209.33L277.38 208.1L278.34 206.88L279.31 205.66L280.28 204.44L283.19 200.84L284.17 199.66L285.14 198.48L287.1 196.14L288.08 194.98L290.04 192.68L291.02 191.54L292.01 190.41L292.99 189.28L293.98 188.17L294.96 187.05L296.94 184.85L297.92 183.76L299.9 181.6L300.89 180.53L301.88 179.47L302.86 178.41L303.85 177.36L304.84 176.32L302.54 174.22L300.25 172.16L297.97 170.16L295.69 168.2L293.43 166.29L291.17 164.44L288.93 162.63L286.69 160.87L284.47 159.16L282.27 157.5L280.07 155.89L277.9 154.34L275.73 152.83L273.59 151.38L271.45 149.97L269.34 148.62L267.25 147.32L265.17 146.08L263.11 144.88L261.08 143.74L259.06 142.65L257.07 141.62L255.1 140.64L253.15 139.71L251.23 138.84L249.33 138.02L247.45 137.26L245.61 136.55L243.79 135.9L241.99 135.3L240.23 134.76L238.49 134.27L236.78 133.84L235.11 133.47L233.46 133.15L231.85 132.89L230.26 132.69L228.72 132.54L227.2 132.46L225.72 132.43L225.72 132.52L225.4 132.52ZM317.72 193.21L315.72 195.35L314.72 196.44L313.71 197.53L312.71 198.63L310.71 200.87L309.7 202L308.7 203.13L307.7 204.28L305.7 206.6L304.7 207.77L303.71 208.96L302.71 210.15L301.72 211.35L300.72 212.55L299.73 213.77L298.74 215L297.75 216.23L296.77 217.47L295.78 218.72L294.8 219.98L293.82 221.25L294.81 221.2L295.8 221.14L296.8 221.1L297.79 221.05L298.79 221.01L299.78 220.97L300.78 220.93L301.78 220.89L302.79 220.86L304.79 220.8L306.81 220.74L309.84 220.68L310.85 220.66L311.86 220.65L312.88 220.63L313.89 220.62L314.91 220.61L315.93 220.6L316.95 220.6L317.96 220.59L322.03 220.59L323.03 220.6L324.04 220.61L325.05 220.62L326.05 220.63L327.06 220.65L328.06 220.66L329.07 220.68L330.07 220.7L331.07 220.73L332.07 220.75L333.06 220.78L335.06 220.84L336.05 220.87L338.03 220.93L340.01 221.01L341 221.04L341.98 221.08L342.97 221.12L343.95 221.16L344.93 221.21L345.91 221.25L344.91 219.98L343.91 218.72L342.91 217.47L341.9 216.23L340.9 215L339.9 213.77L338.89 212.55L337.89 211.35L336.88 210.15L335.87 208.96L334.87 207.77L333.86 206.6L332.85 205.44L331.84 204.28L330.84 203.13L328.82 200.87L326.8 198.63L325.79 197.53L324.78 196.44L323.77 195.35L321.75 193.21L320.73 192.16L319.72 191.11L318.72 192.16L317.72 193.21Z" id="c9ddD5aQJ"></path><path d="M320.01 46.99L320.01 46.99L320.01 46.99Z" id="abKLyov6k"></path><path d="M320.01 46.99L320.01 46.99L320.01 46.99Z" id="b6o927J2L"></path><path d="M276.87 316.8C276.87 340.58 296.14 359.85 319.9 359.85C343.69 359.85 362.96 340.58 362.96 316.8C362.96 293.03 343.69 273.76 319.9 273.76C296.14 273.76 276.87 293.03 276.87 316.8Z" id="aQIVKjL8F"></path><path d="M276.87 316.8C276.87 340.58 296.14 359.85 319.9 359.85C343.69 359.85 362.96 340.58 362.96 316.8C362.96 293.03 343.69 273.76 319.9 273.76C296.14 273.76 276.87 293.03 276.87 316.8Z" id="a6dDru0RoI"></path><path d="M508.1 46.71L508.1 46.71L508.1 46.71Z" id="b4Tpp1rhyx"></path><path d="M508.1 46.71L508.1 46.71L508.1 46.71Z" id="b1yNJyg19o"></path></defs><g><g><g><use xlink:href="#e1O3a2DB0g" opacity="1" fill="#61dafb" fill-opacity="1"></use><g><use xlink:href="#e1O3a2DB0g" opacity="1" fill-opacity="0" stroke="#000000" stroke-width="1" stroke-opacity="0"></use></g></g><g><use xlink:href="#c9ddD5aQJ" opacity="1" fill="#000000" fill-opacity="0"></use><g><use xlink:href="#c9ddD5aQJ" opacity="1" fill-opacity="0" stroke="#000000" stroke-width="1" stroke-opacity="0"></use></g></g><g><use xlink:href="#abKLyov6k" opacity="1" fill="#ea548d" fill-opacity="1"></use><g><use xlink:href="#abKLyov6k" opacity="1" fill-opacity="0" stroke="#000000" stroke-width="1" stroke-opacity="0"></use></g></g><g><use xlink:href="#b6o927J2L" opacity="1" fill="#000000" fill-opacity="0"></use><g><use xlink:href="#b6o927J2L" opacity="1" fill-opacity="0" stroke="#000000" stroke-width="1" stroke-opacity="0"></use></g></g><g><use xlink:href="#aQIVKjL8F" opacity="1" fill="#61dafb" fill-opacity="1"></use><g><use xlink:href="#aQIVKjL8F" opacity="1" fill-opacity="0" stroke="#000000" stroke-width="1" stroke-opacity="0"></use></g></g><g><use xlink:href="#a6dDru0RoI" opacity="1" fill="#000000" fill-opacity="0"></use><g><use xlink:href="#a6dDru0RoI" opacity="1" fill-opacity="0" stroke="#000000" stroke-width="1" stroke-opacity="0"></use></g></g><g><use xlink:href="#b4Tpp1rhyx" opacity="1" fill="#ea548d" fill-opacity="1"></use><g><use xlink:href="#b4Tpp1rhyx" opacity="1" fill-opacity="0" stroke="#000000" stroke-width="1" stroke-opacity="0"></use></g></g><g><use xlink:href="#b1yNJyg19o" opacity="1" fill="#000000" fill-opacity="0"></use><g><use xlink:href="#b1yNJyg19o" opacity="1" fill-opacity="0" stroke="#000000" stroke-width="1" stroke-opacity="0"></use></g></g></g></g></svg>